<?xml version="1.0" encoding="UTF-8"?>
<svg width="150px" height="150px" viewBox="0 0 150 150" version="1.1" xmlns="http://www.w3.org/2000/svg" xmlns:xlink="http://www.w3.org/1999/xlink">
    <!-- Generator: Sketch 50.2 (55047) - http://www.bohemiancoding.com/sketch -->
    <title>color icon/shower rain 10dn copy</title>
    <desc>Created with Sketch.</desc>
    <defs>
        <path d="M38.3425223,101.876572 C27.125322,101.876572 18,92.7502303 18,81.5330299 C18,70.3148097 27.125322,61.1884678 38.3425223,61.1884678 C39.189065,61.1884678 40.045807,61.2455839 40.9066287,61.3598162 C43.1637358,43.5732408 58.3352083,30 76.5562743,30 C90.3600194,30 102.891911,37.899365 108.886045,50.2466488 C122.310376,51.1513275 132.994152,62.4164646 132.994152,76.0274428 C132.994152,90.2809775 121.398557,101.876572 107.142983,101.876572 C105.85379,101.876572 104.810401,100.831143 104.810401,99.5419503 C104.810401,98.2527576 105.85379,97.2073284 107.142983,97.2073284 C118.822212,97.2073284 128.326948,87.7056519 128.326948,76.0274428 C128.326948,64.462446 118.914006,54.9658692 107.343909,54.8567366 C106.423932,54.8485771 105.593708,54.3008742 105.226533,53.4553515 C100.25029,42.0433444 88.9973917,34.6692438 76.5562743,34.6692438 C59.9161012,34.6692438 46.2010901,47.6723431 45.331089,64.2747787 C45.2943715,64.9775112 44.9424953,65.6251673 44.3723539,66.0392592 C43.8032325,66.4543711 43.0801015,66.5900219 42.3967477,66.4074543 C41.0300403,66.042319 39.6674126,65.8577115 38.3425223,65.8577115 C29.6986077,65.8577115 22.6672039,72.8891153 22.6672039,81.5330299 C22.6672039,90.1749047 29.6986077,97.2073284 38.3425223,97.2073284 C39.631715,97.2073284 40.6771442,98.2527576 40.6771442,99.5419503 C40.6771442,100.831143 39.631715,101.876572 38.3425223,101.876572 Z M107.24467,65.3981307 C105.955477,65.3838516 104.920247,64.330263 104.931467,63.0410703 C104.945746,61.7508577 106.005454,60.697269 107.288527,60.7288869 C115.648901,60.8084415 122.45184,67.6715567 122.45184,76.0278508 C122.45184,77.3170435 121.406411,78.3624727 120.117218,78.3624727 C118.828025,78.3624727 117.784636,77.3170435 117.784636,76.0278508 C117.784636,70.221384 113.055216,65.4532069 107.24467,65.3981307 Z M76.5560703,40.54323 C86.659506,40.54323 95.800127,46.5332843 99.8421133,55.8034365 C100.358198,56.9845165 99.8186548,58.3604033 98.634515,58.8764883 C98.3326155,59.0080594 98.015417,59.0712952 97.704338,59.0712952 C96.804759,59.0712952 95.9459771,58.5470507 95.563503,57.6688901 C92.2619866,50.1010027 84.8011919,45.2114538 76.5560703,45.2114538 C75.2648378,45.2114538 74.2214484,44.1670445 74.2214484,42.8778519 C74.2214484,41.5876392 75.2648378,40.54323 76.5560703,40.54323 Z M50.6235106,97.1952932 C52.2533602,97.1952932 53.5741707,98.5171237 53.5741707,100.147993 C53.5741707,101.777843 52.2533602,103.099673 50.6235106,103.099673 C48.9916211,103.099673 47.6708106,101.777843 47.6708106,100.147993 C47.6708106,98.5171237 48.9916211,97.1952932 50.6235106,97.1952932 Z M44.7191305,113.295005 C44.7191305,111.665155 46.039941,110.342305 47.6718305,110.342305 C49.3006602,110.342305 50.6235106,111.665155 50.6235106,113.295005 C50.6235106,114.925874 49.3006602,116.247705 47.6718305,116.247705 C46.039941,116.247705 44.7191305,114.925874 44.7191305,113.295005 Z M69.59188,116.247297 C69.59188,114.617447 70.9147304,113.294597 72.54458,113.294597 C74.1734097,113.294597 75.4962601,114.617447 75.4962601,116.247297 C75.4962601,117.877147 74.1734097,119.199997 72.54458,119.199997 C70.9147304,119.199997 69.59188,117.877147 69.59188,116.247297 Z M71.5381121,101.601701 C71.5381121,99.9698113 72.8589227,98.6490008 74.4887723,98.6490008 C76.1196419,98.6490008 77.4404524,99.9698113 77.4404524,101.601701 C77.4404524,103.23155 76.1196419,104.552361 74.4887723,104.552361 C72.8589227,104.552361 71.5381121,103.23155 71.5381121,101.601701 Z M65.7033933,107.392563 C65.7033933,109.022412 64.3805429,110.345263 62.7506933,110.345263 C61.1218636,110.345263 59.7990132,109.022412 59.7990132,107.392563 C59.7990132,105.762713 61.1218636,104.441902 62.7506933,104.441902 C64.3805429,104.441902 65.7033933,105.762713 65.7033933,107.392563 Z M97.3998887,100.147483 C97.3998887,101.778353 96.0790781,103.100183 94.4492285,103.100183 C92.8203988,103.100183 91.4975484,101.778353 91.4975484,100.147483 C91.4975484,98.5166137 92.8203988,97.1947832 94.4492285,97.1947832 C96.0790781,97.1947832 97.3998887,98.5166137 97.3998887,100.147483 Z M84.1777081,110.344753 C84.1777081,108.712863 85.4985187,107.392053 87.1304082,107.392053 C88.7602578,107.392053 90.0810683,108.712863 90.0810683,110.344753 C90.0810683,111.974602 88.7602578,113.295413 87.1304082,113.295413 C85.4985187,113.295413 84.1777081,111.974602 84.1777081,110.344753 Z" id="path-1"></path>
    </defs>
    <g id="color-icon/shower-rain-10dn-copy" stroke="none" stroke-width="1" fill="none" fill-rule="evenodd">
        <mask id="mask-2" fill="white">
            <use xlink:href="#path-1"></use>
        </mask>
        <use id="Mask" fill="#C1CDDA" xlink:href="#path-1"></use>
    </g>
</svg>