<?xml version="1.0" encoding="UTF-8"?>
<svg width="150px" height="150px" viewBox="0 0 150 150" version="1.1" xmlns="http://www.w3.org/2000/svg" xmlns:xlink="http://www.w3.org/1999/xlink">
    <!-- Generator: Sketch 50.2 (55047) - http://www.bohemiancoding.com/sketch -->
    <title>color icon/clear-day 1d copy 3</title>
    <desc>Created with Sketch.</desc>
    <defs>
        <path d="M105.570855,75.4991803 C105.570855,92.631383 91.6323051,106.570957 74.4990779,106.570957 C57.3668752,106.570957 43.4293504,92.631383 43.4293504,75.4991803 C43.4293504,58.3649285 57.3668752,44.4274036 74.4990779,44.4274036 C91.6323051,44.4274036 105.570855,58.3649285 105.570855,75.4991803 Z M72.7398534,20.3432419 C72.7398534,19.0481576 73.7900602,18 75.0851445,18 C76.3802288,18 77.4304355,19.0481576 77.4304355,20.3432419 L77.4304355,32.1158038 C77.4304355,33.4108881 76.3802288,34.4610949 75.0851445,34.4610949 C73.7900602,34.4610949 72.7398534,33.4108881 72.7398534,32.1158038 L72.7398534,20.3432419 Z M46.2565071,25.4082099 C47.3794599,24.7616924 48.8138887,25.1459144 49.4604062,26.266818 L55.3477118,36.4625329 C55.9942293,37.5854857 55.6100073,39.0199145 54.4891037,39.666432 C54.119226,39.8805718 53.7165613,39.9809818 53.3190196,39.9809818 C52.5085674,39.9809818 51.7196315,39.5608991 51.2852045,38.807824 L45.3999481,28.6121091 C44.7513814,27.4891563 45.1356034,26.0547275 46.2565071,25.4082099 Z M38.3960422,51.2691167 C39.5169459,51.9156342 39.9011679,53.3521122 39.2526011,54.4730158 C38.8181741,55.2250663 38.0323121,55.6441245 37.2218598,55.6441245 C36.8232935,55.6441245 36.4185797,55.5437144 36.0507512,55.3316239 L25.8550363,49.4443183 C24.7320834,48.7957516 24.3478615,47.3613228 24.9964282,46.2404192 C25.6449949,45.1195155 27.0773745,44.7352935 28.2003273,45.3818111 L38.3960422,51.2691167 Z M33.4631441,74.9128063 C33.4631441,76.2058414 32.4129373,77.2580974 31.117853,77.2580974 L19.3452911,77.2580974 C18.0502068,77.2580974 17,76.2058414 17,74.9128063 C17,73.6156729 18.0502068,72.5675153 19.3452911,72.5675153 L31.117853,72.5675153 C32.4129373,72.5675153 33.4631441,73.6156729 33.4631441,74.9128063 Z M35.4642747,94.650239 C36.5851783,94.0057707 38.0196071,94.3879435 38.6661247,95.5108963 C39.3146914,96.6317999 38.9304694,98.0662287 37.8095658,98.7147955 L27.6138509,104.602101 C27.2439732,104.814192 26.8413085,104.914602 26.4427422,104.914602 C25.63229,104.914602 24.8443787,104.493494 24.4099517,103.743493 C23.7634342,102.62054 24.145607,101.186111 25.2685598,100.539594 L35.4642747,94.650239 Z M50.2708585,111.603958 C50.917376,110.483054 52.3497556,110.098832 53.4727084,110.74535 C54.5956613,111.393916 54.9798832,112.828345 54.3313165,113.949249 L48.4460601,124.142915 C48.0116331,124.898039 47.2226973,125.316072 46.412245,125.316072 C46.0147033,125.316072 45.6099895,125.215662 45.242161,125.003572 C44.1192082,124.355005 43.7349862,122.920576 44.3835529,121.799673 L50.2708585,111.603958 Z M71.5691546,118.882147 C71.5691546,117.587063 72.6173122,116.536856 73.9144457,116.536856 C75.20953,116.536856 76.2576876,117.587063 76.2576876,118.882147 L76.2576876,130.654709 C76.2576876,131.949793 75.2074808,133 73.9123965,133 C72.6173122,133 71.5671054,131.949793 71.5671054,130.654709 L71.5691546,118.882147 Z M94.510384,111.331826 C95.6333368,110.683259 97.0657164,111.069531 97.7142832,112.190434 L103.59954,122.386149 C104.248106,123.507053 103.863884,124.941482 102.740931,125.590048 C102.373103,125.802139 101.968389,125.902549 101.572897,125.902549 C100.762444,125.902549 99.9735085,125.484515 99.5390815,124.729391 L93.6517759,114.535725 C93.0052584,113.414822 93.3894804,111.980393 94.510384,111.331826 Z M110.603753,99.7310883 C109.482849,99.0825215 109.098627,97.6460436 109.747194,96.5271891 C110.393711,95.4042363 111.82814,95.0200143 112.949044,95.668581 L123.144759,101.553837 C124.267712,102.200355 124.649884,103.637858 124.003367,104.755687 C123.56894,105.510812 122.781029,105.928845 121.970576,105.928845 C121.57201,105.928845 121.17037,105.828435 120.799468,105.616345 L110.603753,99.7310883 Z M132.000102,76.0854519 C132.000102,77.3825853 130.949896,78.4307429 129.654811,78.4307429 L117.882249,78.4307429 C116.587165,78.4307429 115.536958,77.378487 115.536958,76.0854519 C115.536958,74.7883184 116.587165,73.7401608 117.882249,73.7401608 L129.654811,73.7401608 C130.951945,73.7401608 132.000102,74.7903676 132.000102,76.0854519 Z M112.364719,56.6582656 C111.554267,56.6582656 110.765331,56.2402321 110.333978,55.4851078 C109.685411,54.3652287 110.069633,52.9297754 111.190537,52.2832578 L121.386252,46.3980014 C122.506131,45.7504593 123.941584,46.1357059 124.590151,47.2566095 C125.236668,48.3775131 124.853471,49.8119419 123.731543,50.4605087 L113.535828,56.345765 C113.166975,56.5578556 112.763285,56.6582656 112.364719,56.6582656 Z M95.5269842,40.2507569 C94.4040314,39.6021901 94.0198094,38.1698105 94.6683761,37.0468577 L100.553632,26.853192 C101.20015,25.7302392 102.636628,25.3480664 103.757532,25.9945839 C104.878435,26.6411015 105.262657,28.0775794 104.61614,29.1964339 L98.7288342,39.3921488 C98.2944072,40.1462485 97.5064959,40.5653066 96.6960436,40.5653066 C96.2995265,40.5653066 95.8948127,40.4648966 95.5269842,40.2507569 Z" id="path-1"></path>
    </defs>
    <g id="color-icon/clear-day-1d-copy-3" stroke="none" stroke-width="1" fill="none" fill-rule="evenodd">
        <mask id="mask-2" fill="white">
            <use xlink:href="#path-1"></use>
        </mask>
        <use id="Mask" fill="#FFBD70" xlink:href="#path-1"></use>
    </g>
</svg>