<?xml version="1.0" encoding="UTF-8"?>
<svg width="150px" height="150px" viewBox="0 0 150 150" version="1.1" xmlns="http://www.w3.org/2000/svg" xmlns:xlink="http://www.w3.org/1999/xlink">
    <!-- Generator: Sketch 50.2 (55047) - http://www.bohemiancoding.com/sketch -->
    <title>color icon/thunderstorm 11dn copy</title>
    <desc>Created with Sketch.</desc>
    <defs>
        <path d="M52.5433235,89.8783049 L38.3433014,89.8783049 C27.1236315,89.8783049 18,80.7526335 18,69.5350036 C18,58.3173736 27.1236315,49.1886423 38.3433014,49.1886423 C39.1898765,49.1886423 40.0466513,49.2467805 40.9075059,49.3599972 C43.1626596,31.5727406 58.3326732,18 76.5564769,18 C90.3617707,18 102.892102,25.8986476 108.888506,38.2464042 C122.313351,39.1511176 132.997536,50.4166861 132.997536,64.0281856 C132.997536,78.2822662 121.401497,89.8783049 107.147417,89.8783049 L93.5889557,89.8783049 C92.2986937,89.8783049 91.2542444,88.8328357 91.2542444,87.5435936 C91.2542444,86.2543516 92.2986937,85.2088823 93.5889557,85.2088823 L107.147417,85.2088823 C118.825053,85.2088823 128.330153,75.7078619 128.330153,64.0281856 C128.330153,52.4637659 118.91685,42.9658054 107.345291,42.8576885 C106.424258,42.8505488 105.594002,42.3007849 105.226813,41.4552298 C100.25038,30.0448256 88.9970509,22.6694226 76.5564769,22.6694226 C59.9166866,22.6694226 46.1980903,35.6740399 45.3300958,52.2750714 C45.2943968,52.9778308 44.9435272,53.6275516 44.3733639,54.0416595 C43.8062606,54.4557673 43.081062,54.5914233 42.3956421,54.4088486 C41.0309223,54.0436994 39.6682424,53.8590848 38.3433014,53.8590848 C29.6980358,53.8590848 22.6673827,60.8907579 22.6673827,69.5350036 C22.6673827,78.1782292 29.6980358,85.2088823 38.3433014,85.2088823 L52.5433235,85.2088823 C53.8305257,85.2088823 54.8780348,86.2543516 54.8780348,87.5435936 C54.8780348,88.8328357 53.8305257,89.8783049 52.5433235,89.8783049 Z M117.7855,64.0284916 C117.7855,58.2218024 113.057939,53.4544627 107.24717,53.3983644 C105.957928,53.3861247 104.924698,52.3324957 104.935918,51.0442737 C104.946118,49.7611514 105.990567,48.7309817 107.268589,48.7309817 L107.291029,48.7309817 C115.651723,48.8084994 122.454922,55.6718775 122.454922,64.0284916 C122.454922,65.3197736 121.409453,66.3632029 120.120211,66.3632029 C118.828929,66.3632029 117.7855,65.3197736 117.7855,64.0284916 Z M95.5633117,45.6690318 C92.2647287,38.1028945 84.8036483,33.2121384 76.5561709,33.2121384 C75.2679489,33.2121384 74.2234996,32.1666691 74.2234996,30.8774271 C74.2234996,29.588185 75.2679489,28.5427158 76.5561709,28.5427158 C86.6599936,28.5427158 95.8019846,34.5329995 99.8420857,43.8045267 C100.358191,44.9856519 99.8165865,46.3626114 98.6375012,46.8766763 C98.3325302,47.0092724 98.0153195,47.0714906 97.7052486,47.0714906 C96.8046151,47.0714906 95.9458004,46.547226 95.5633117,45.6690318 Z" id="path-1"></path>
    </defs>
    <g id="color-icon/thunderstorm-11dn-copy" stroke="none" stroke-width="1" fill="none" fill-rule="evenodd">
        <mask id="mask-2" fill="white">
            <use xlink:href="#path-1"></use>
        </mask>
        <use id="Mask" fill="#C1CDDA" xlink:href="#path-1"></use>
        <path d="M62.8330868,129.169181 L72.6400982,107.869148 L52.3518752,107.869148 C51.4532816,107.869148 50.6352657,107.355083 50.2466571,106.544207 C49.8580486,105.73537 49.9671853,104.775579 50.5291888,104.073839 L70.3931043,79.2997882 C70.8347513,78.7459445 71.5048716,78.4256739 72.2137507,78.4256739 L84.3054949,78.4317938 C85.1785892,78.4317938 85.9731458,78.9132196 86.376034,79.6863568 C86.7779022,80.4574542 86.7187439,81.3876668 86.2220185,82.1006258 L77.4533365,94.6697159 L93.7463371,94.6697159 C94.6612502,94.6697159 95.4915058,95.2031603 95.8678747,96.0364757 C96.2503634,96.8687712 96.1096076,97.8448825 95.5098652,98.5364222 L66.7150925,131.677287 C66.257126,132.204611 65.6074051,132.480003 64.9505445,132.480003 C64.5160372,132.480003 64.0754102,132.358627 63.6847617,132.107714 C62.7106904,131.478393 62.3445211,130.22485 62.8330868,129.169181 Z" id="Fill-8" fill="#FFBD70"></path>
    </g>
</svg>