<?xml version="1.0" encoding="UTF-8"?>
<svg width="316px" height="73px" viewBox="0 0 316 73" version="1.1" xmlns="http://www.w3.org/2000/svg" xmlns:xlink="http://www.w3.org/1999/xlink">
    <!-- Generator: Sketch 50.2 (55047) - http://www.bohemiancoding.com/sketch -->
    <title>skyline/chicago</title>
    <desc>Created with Sketch.</desc>
    <defs></defs>
    <g id="skyline/chicago" stroke="none" stroke-width="1" fill="none" fill-rule="evenodd">
        <path d="M29.1883512,80.0135279 C29.3096282,71.2567115 29.533524,51.7684417 29.533524,51.7684417 L37.9379117,51.3299789 L39.1392789,51.6533841 L39.1154381,53.3616267 L39.5321332,53.5233292 L39.5663395,65.6105967 L40.8133151,65.6344374 L40.8133151,65.0218334 L41.1139161,64.976225 L41.1139161,52.575918 L41.829139,52.575918 L41.8405411,52.2877557 L42.1287034,52.2535494 L42.1525442,51.7456375 L42.6666754,51.7508202 L42.6666754,50.7111556 L45.4892146,50.6023173 L45.5358596,47.5082008 L46.7019839,47.48436 L46.7247881,46.6996879 L48.213281,46.6654816 L48.213281,45.2225971 L52.3823051,45.1065029 L53.7557404,45.418506 L53.7443383,46.5265832 L55.1467972,46.9246203 L55.1467972,47.4439344 L56.3357257,47.784961 L56.3253602,48.9158424 L58.4492613,48.9158424 L58.4948697,46.9422418 L64.0373291,46.871756 L66.0109298,47.2542448 L65.9995276,48.6504843 L66.5768888,48.6504843 L66.5540846,44.7022465 L73.6430839,44.5757868 L73.6430839,43.0510144 L75.1958433,42.9929674 L75.6394888,43.1204636 L75.6633296,44.4824968 L78.5376965,44.5115204 L80.7424489,45.1863177 L80.7662897,49.8995331 L82.4030099,50.3597635 L82.3822788,50.4426879 L81.895098,50.5349413 L81.8754035,52.3934843 L82.8736059,53.0112711 L82.8860446,54.2934896 L84.4439867,54.3276959 L84.4325846,54.5350069 L87.3992049,54.5412262 L88.3175926,54.7827435 L88.5373422,62.2645972 L89.4598761,62.3454485 L89.4598761,57.4155931 L92.6586848,57.3813868 L92.6586848,55.7073505 L93.247448,55.6949119 L93.2702522,54.2520274 L93.4900018,54.2406253 L93.5366468,45.7667884 L94.1243735,45.7087414 L94.1824206,44.8784608 L95.6263416,44.5084107 L99.9446296,44.3467081 L100.036883,44.6462725 L101.445561,44.6929175 L103.291666,45.6859372 L103.315506,50.8811506 L104.481631,50.8459078 L105.370995,51.1693129 L105.45081,51.8503295 L109.585627,51.7922824 L109.65404,49.9917865 L111.432768,49.9233738 L111.455572,48.3986015 L120.875784,48.3177502 L121.90301,48.7106045 L121.973496,49.8528881 L123.612289,50.5235392 L123.641313,51.8047211 L123.820637,57.5596743 L125.344372,57.7213768 L127.238158,58.5288532 L127.422665,50.8396884 L131.370903,50.7951166 L134.856837,50.6562182 L135.849857,51.3247962 L135.920343,60.6537908 L139.060068,60.6993992 L139.198966,3.66710859 L148.180715,3.50540601 L148.22736,2.62848052 L152.221206,2.60463975 L152.752959,3.08974747 L152.752959,3.55101443 L155.361968,3.4597976 L157.370811,-30.2282387 L157.948172,-30.4376228 L160.280421,-30.4376228 L160.34987,-31.9841628 L160.500171,-31.9955649 L160.488768,-38.6398823 C160.488768,-38.6398823 160.153961,-38.6056759 160.118718,-38.6751251 C160.084512,-38.7435377 160.118718,-39.4017502 160.118718,-39.4017502 L160.500171,-39.4483951 L160.776931,-58.7511217 L161.054727,-58.8319729 L161.146981,-67.6520191 L161.274477,-67.6758599 L161.43618,-58.8661793 L161.596846,-58.7511217 L161.908849,-39.4297371 C161.908849,-39.4297371 162.584683,-39.4017502 162.584683,-39.3385203 C162.584683,-39.2742539 162.492429,-38.3973284 162.492429,-38.3973284 L161.9897,-38.3278792 L161.944092,-31.9095309 L171.08858,-32.1396461 L171.041935,-34.4024456 L170.776576,-34.4957355 L170.765174,-37.2083998 L171.053337,-37.2768125 L171.041935,-38.8471932 L170.406526,-38.8471932 L170.436586,-39.4131523 L170.787979,-39.4079695 L170.823221,-39.1073685 L171.053337,-39.1011492 L171.23888,-52.279909 L171.36534,-52.3846011 L171.399546,-55.6393837 L171.527042,-55.6860286 L171.653502,-63.0973966 L172.093001,-63.0745924 L172.035991,-55.731637 L172.219461,-55.645603 L172.214278,-52.354541 L172.22568,-40.0713647 L172.456832,-39.9956961 L172.479636,-39.5520506 C172.479636,-39.5520506 172.896331,-39.4473586 172.906697,-39.3893115 C172.919136,-39.332301 172.906697,-38.8813996 172.906697,-38.8813996 L172.59573,-38.7321356 L172.556341,-33.6229562 L172.774018,-33.5887499 L172.786457,-32.6879837 L174.149526,-32.6060958 L174.437689,-31.5560656 L173.952581,-31.4866164 L173.929777,-30.5744481 L174.737253,-30.4832312 L175.545766,-27.7581282 L177.970268,20.9164197 L184.527515,20.9164197 L184.57416,21.5404258 L185.683273,21.5860342 L186.052287,23.0983679 L185.960034,40.1621357 L189.146404,45.6123417 L189.215853,52.792558 L190.162227,52.8381664 L190.162227,50.1835491 L190.174666,44.6535284 L190.220274,43.6263024 L190.32393,44.5726771 L190.497035,50.1483063 L194.52716,50.2177555 L194.595573,52.7573151 L195.149093,52.7345109 L196.316254,54.7671952 L196.477957,56.5552525 L201.834873,56.5562891 L201.972735,15.4558482 L205.113496,15.5014566 L205.113496,7.7200385 L205.783111,7.67443008 L205.760307,5.94234673 L213.126066,4.64872614 L213.149907,-6.96483567 L213.51892,-7.03532141 L213.587333,-10.3481511 L214.106647,-10.441441 L215.272771,-12.5643056 L215.319416,-13.4308655 L215.573372,-13.7998791 L215.954825,-13.3386121 L215.943422,-12.3912009 L217.167594,-10.4051616 L217.663067,-10.3481511 L217.743918,-7.08092983 L218.806387,-7.09233193 L218.794985,-7.42195641 L219.441795,-7.42713919 L219.453198,-7.06952772 L220.486643,-7.06952772 L220.520849,-10.3253469 L221.005957,-10.3481511 L222.14824,-12.3912009 L222.160679,-13.3500142 L222.518291,-13.8465241 L222.911145,-13.3386121 L222.92151,-12.2999841 L224.129097,-10.4518066 L224.613168,-10.4061982 L224.730299,9.72266269 L225.503569,9.69985848 L225.49735,8.09423484 L225.745086,8.08905206 L225.785512,9.69363915 L227.551802,13.0189075 L227.56424,14.1269847 L228.256659,14.1622276 L228.268061,13.0531138 L229.238276,13.0645159 L229.307726,24.9558744 L231.501076,24.9786786 L231.52388,26.0411475 L234.43349,26.0411475 L234.480135,37.0089355 L238.127772,37.0317398 L238.497822,40.1714647 L240.852875,40.1714647 L240.852875,40.9105284 L244.685019,41.0027818 L244.316005,22.7625241 L246.90221,18.8826989 L251.197693,18.7676413 L253.066602,16.6427036 L255.168735,16.574291 L255.19154,16.2280816 L255.723292,16.0197341 L255.653843,14.7271501 L256.519367,13.7797388 L260.999357,13.9528435 L261.06777,14.7375156 L271.759834,15.2226233 L271.896659,18.1322331 L274.252749,18.1788781 L274.252749,21.1797047 L276.053245,21.2719581 L276.146535,70.7778232 L276.931207,70.8700765 L277.092909,72.5783191 L278.039284,72.5783191 L278.039284,71.9325454 L278.432138,71.8859004 L277.785328,-12.9478309 L285.960637,-21.6756237 L285.960637,-23.1993595 L287.253221,-24.5385885 L296.027659,-24.3996902 L296.211129,-20.8443066 L300.275461,-20.6131549 L300.275461,-19.804642 L299.929252,-19.7248273 L299.987299,74.0450444 L310.239864,74.2295512 L310.551867,80.0135279 L316,80.0135279 L316,84.0778599 L0,84.0778599 L0,80.0135279 L0.0435353085,80.0135279 L0.358648017,49.3273547 L0.877962054,49.2112606 L0.900766263,48.6691423 L2.12493768,48.530244 C2.12493768,48.530244 2.12493768,48.2524472 2.1933503,48.2182409 C2.26279949,48.1840346 2.50535335,48.1612304 2.50535335,48.1612304 L2.58620463,47.5372243 C2.58620463,47.5372243 3.59062639,47.4688117 5.18381137,47.4221667 C6.77699635,47.3755217 7.47045162,47.6066735 7.47045162,47.6066735 L7.56270501,48.7157873 C7.56270501,48.7157873 11.0828457,48.9459025 11.4757,48.9811454 C11.8685543,49.0153517 11.9266014,49.0619967 11.9266014,49.0619967 L11.8270921,80.0135279 L29.1883512,80.0135279 Z" id="Fill-1" fill="#231F20"></path>
    </g>
</svg>