<?xml version="1.0" encoding="UTF-8"?>
<svg width="232px" height="104px" viewBox="0 0 232 104" version="1.1" xmlns="http://www.w3.org/2000/svg" xmlns:xlink="http://www.w3.org/1999/xlink">
    <!-- Generator: Sketch 50.2 (55047) - http://www.bohemiancoding.com/sketch -->
    <title>Artboard</title>
    <desc>Created with Sketch.</desc>
    <defs></defs>
    <g id="Artboard" stroke="none" stroke-width="1" fill="none" fill-rule="evenodd">
        <path d="M185.494251,37.1208291 C189.370954,37.1208291 193.016413,38.6278512 195.757035,41.3689762 C201.414322,47.0242242 201.414322,56.2274245 195.757035,61.8841639 C190.099748,67.5409032 180.891738,67.5409032 175.234451,61.8841639 C174.567571,61.2182703 174.567571,60.1377779 175.234451,59.4711387 C175.902076,58.8052452 176.981466,58.8052452 177.648346,59.4711387 C179.74372,61.5665036 182.529098,62.7200728 185.494251,62.7200728 C188.459403,62.7200728 191.247765,61.5665036 193.342394,59.4711387 C197.666668,55.1454407 197.666668,48.106208 193.342394,43.782747 C191.247765,41.6866365 188.459403,40.5330673 185.494251,40.5330673 C182.529098,40.5330673 179.74372,41.6866365 177.648346,43.782747 L129.913495,91.4989021 C129.580056,91.8322217 129.144421,92 128.707294,92 C128.270167,92 127.83304,91.8322217 127.4996,91.4989021 C126.833467,90.8330086 126.833467,89.7525162 127.4996,89.0858769 L175.234451,41.3689762 C177.975072,38.6278512 181.619039,37.1208291 185.494251,37.1208291 Z M131.989773,41.4565192 C131.989773,37.5827041 133.498831,33.938559 136.240944,31.1989254 C141.898231,25.5436774 151.104749,25.542186 156.763528,31.1989254 C159.504149,33.938559 161.013207,37.5827041 161.013207,41.4565192 C161.013207,45.3318256 159.504149,48.9744794 156.763528,51.714113 L132.432868,76.0330217 C132.098682,76.3663413 131.663793,76.5341196 131.226666,76.5341196 C130.789539,76.5341196 130.352412,76.3663413 130.018227,76.0330217 C129.352839,75.3678739 129.352839,74.2866358 130.018227,73.6199966 L154.349633,49.3010879 C156.444261,47.2064688 157.598247,44.4206029 157.598247,41.4565192 C157.598247,38.4939269 156.444261,35.708061 154.349633,33.6119505 C150.022375,29.2884895 142.983589,29.2869982 138.655585,33.6119505 C136.557227,35.708061 135.404734,38.4939269 135.404734,41.4565192 C135.404734,44.4206029 136.557227,47.2064688 138.655585,49.3010879 C139.322465,49.9677271 139.322465,51.0482195 138.655585,51.714113 C137.98796,52.3807522 136.908569,52.3807522 136.240944,51.7156044 C133.498831,48.9744794 131.989773,45.3318256 131.989773,41.4565192 Z M153.848205,23.1130542 C153.05153,22.6104649 152.813572,21.5560713 153.316343,20.7596836 C155.387847,17.483905 158.61259,15.2103223 162.393066,14.3602455 C166.171304,13.5079316 170.062181,14.1797906 173.33914,16.2505479 C180.100434,20.5247939 182.122705,29.5035441 177.846918,36.2646376 C177.521683,36.7784122 176.968188,37.0595341 176.402758,37.0595341 C176.090951,37.0595341 175.775414,36.9737807 175.491207,36.7948171 C174.693786,36.2907365 174.458066,35.2363429 174.960836,34.4392095 C178.231828,29.2694001 176.683981,22.4054025 171.5138,19.1355894 C169.008899,17.551762 166.037033,17.0387332 163.143492,17.6897131 C160.251442,18.340693 157.786077,20.0781307 156.202424,22.5828747 C155.701146,23.3792624 154.643388,23.6186262 153.848205,23.1130542 Z" id="Combined-Shape" fill="#FFFFFF" transform="translate(163.500000, 53.000000) rotate(45.000000) translate(-163.500000, -53.000000) "></path>
        <text id="Gusty" font-family="Montserrat-Medium, Montserrat" font-size="36" font-weight="400" fill="#FFFFFF">
            <tspan x="0.132" y="65">Gusty</tspan>
        </text>
    </g>
</svg>