<?xml version="1.0" encoding="UTF-8"?>
<svg width="150px" height="150px" viewBox="0 0 150 150" version="1.1" xmlns="http://www.w3.org/2000/svg" xmlns:xlink="http://www.w3.org/1999/xlink">
    <!-- Generator: Sketch 50.2 (55047) - http://www.bohemiancoding.com/sketch -->
    <title>icon/clear-night 1n</title>
    <desc>Created with Sketch.</desc>
    <defs>
        <path d="M96.0488126,92.0444415 C92.2850993,92.8219272 88.4499298,93.2144028 84.5838315,93.2144028 C53.307363,93.2144028 27.8604374,67.7674773 27.8604374,36.4910087 C27.8604374,27.9407991 29.7748226,19.5814947 33.4414836,11.9548826 C16.1149642,20.6586697 4.88141569,38.5003133 4.88141569,58.2755394 C4.88141569,86.8633365 28.139863,110.119651 56.7255271,110.119651 C72.0000815,110.119651 86.258252,103.468895 96.0488126,92.0444415 M104.178817,86.3130174 C104.820856,87.13423 104.869916,88.2732626 104.301466,89.1456677 C93.7760801,105.335288 75.9888284,115 56.7255271,115 C25.4469256,115 0,89.5541409 0,58.2755394 C0,34.0753639 15.3748063,12.5222659 38.2557091,4.64395743 C39.2379647,4.30374078 40.3322039,4.62689327 40.9753093,5.4502389 C41.6173483,6.27038499 41.6674742,7.40835102 41.0968914,8.28182261 C35.6310283,16.6944525 32.7418531,26.4466188 32.7418531,36.4910087 C32.7418531,65.0766729 55.9981674,88.3340537 84.5838315,88.3340537 C90.3355192,88.3340537 96.0136178,87.3827268 101.462417,85.5078025 C102.441473,85.1665193 103.536778,85.4918048 104.178817,86.3130174 Z M91.4245325,5.99778506 C90.3366924,6.78700237 89.7895728,8.47635401 90.2033787,9.75296633 L90.4625406,10.5475162 C90.8763464,11.8241285 90.3249608,12.2230032 89.2413868,11.4337859 L88.566286,10.9431913 C87.4795125,10.1529075 85.702707,10.153974 84.617,10.9431913 L83.9418992,11.4337859 C82.8572587,12.2219367 82.3069396,11.8241285 82.7218119,10.5475162 L82.9777743,9.75296633 C83.3947796,8.47635401 82.8423275,6.78593586 81.755554,5.99778506 L81.0847193,5.50719052 C79.9968792,4.71903973 80.2069816,4.07273474 81.548651,4.07273474 L82.3815953,4.07273474 C83.7253977,4.07273474 85.165186,3.02755507 85.5800584,1.75094275 L85.8381538,0.958525915 C86.2519596,-0.319152912 86.9313264,-0.319152912 87.3461987,0.956392895 L87.6021611,1.75200926 C88.0191664,3.02755507 89.4578883,4.07273474 90.7995577,4.07273474 L91.6346349,4.07273474 C92.9763043,4.07273474 93.1864068,4.71797322 92.0996332,5.50612401 L91.4245325,5.99778506 Z M59.0355875,47.9374326 L61.5461517,45.4279349 C62.4932125,44.4798076 62.7726381,42.7232658 62.1625944,41.5277083 L60.5500315,38.36444 C59.9399879,37.1678159 60.4231168,36.688953 61.6186744,37.2968636 L64.7787432,38.90836 C65.9764337,39.5173372 67.731909,39.2400446 68.6821693,38.2908508 L71.191667,35.7813531 C72.1397943,34.8310928 72.7455719,35.1393141 72.5354695,36.4660524 L71.9776848,39.9716704 C71.7686489,41.2973421 72.5770633,42.8821758 73.7726209,43.4911529 L76.9326897,45.1026494 C78.1303803,45.712693 78.0226628,46.3835277 76.6980575,46.5925637 L73.1935061,47.1482153 C71.8667678,47.3572512 70.6093526,48.6135999 70.4003167,49.9403381 L69.8446651,53.4427566 C69.6345626,54.7694948 68.9637279,54.8761458 68.3547508,53.6795218 L66.7432543,50.5205195 C66.1321442,49.3249619 64.5515766,48.517614 63.2227053,48.7266499 L59.7192203,49.281235 C58.3935486,49.4913375 58.0853272,48.8866264 59.0355875,47.9374326 Z M106.641069,67.2126788 C107.838759,67.821656 107.729975,68.4924907 106.40537,68.7025931 L105.580958,68.8327073 C104.256353,69.0428098 103.000004,70.3002249 102.789902,71.6258967 L102.658721,72.4492423 C102.447552,73.7749141 101.77885,73.8815651 101.168807,72.6860075 L100.792329,71.9447831 C100.181218,70.7481591 98.5963848,69.9418776 97.2717795,70.1509135 L96.4463009,70.2820942 C95.1216956,70.4900637 94.8134742,69.8853526 95.7637345,68.9361588 L96.3513815,68.3463788 C97.3005753,67.397185 97.5800009,65.6427763 96.9699572,64.4461522 L96.5902797,63.7017283 C95.980236,62.5061708 96.461232,62.0251748 97.6567896,62.6341519 L98.4001469,63.0138295 C99.5978375,63.6228066 101.354379,63.3444475 102.30464,62.3952537 L102.89122,61.8065403 C103.84148,60.85628 104.445125,61.1645013 104.237155,62.4912396 L104.105975,63.3167183 C103.895872,64.6434565 104.704287,66.2261572 105.899844,66.8351343 L106.641069,67.2126788 Z" id="path-1"></path>
    </defs>
    <g id="icon/clear-night-1n" stroke="none" stroke-width="1" fill="none" fill-rule="evenodd">
        <g id="color/white" transform="translate(21.000000, 18.000000)">
            <mask id="mask-2" fill="white">
                <use xlink:href="#path-1"></use>
            </mask>
            <use id="Mask" fill="#FFFFFF" xlink:href="#path-1"></use>
            <g mask="url(#mask-2)" fill="#FFFFFF" id="color">
                <g transform="translate(-21.000000, -17.000000)">
                    <rect x="0" y="0" width="150" height="149"></rect>
                </g>
            </g>
        </g>
    </g>
</svg>