<?xml version="1.0" encoding="UTF-8"?>
<svg width="150px" height="150px" viewBox="0 0 150 150" version="1.1" xmlns="http://www.w3.org/2000/svg" xmlns:xlink="http://www.w3.org/1999/xlink">
    <!-- Generator: Sketch 50.2 (55047) - http://www.bohemiancoding.com/sketch -->
    <title>icon/few clouds 2n</title>
    <desc>Created with Sketch.</desc>
    <defs></defs>
    <g id="icon/few-clouds-2n" stroke="none" stroke-width="1" fill="none" fill-rule="evenodd">
        <g id="Group" transform="translate(17.000000, 31.000000)">
            <path d="M119.550964,34.9366218 C119.789921,35.2422647 119.80818,35.6661953 119.596612,35.9908912 C115.679223,42.0164219 109.059078,45.6134811 101.88957,45.6134811 C90.2481492,45.6134811 80.77719,36.1429188 80.77719,24.5014982 C80.77719,15.4945604 86.4994594,7.47282461 95.015384,4.54063785 C95.3809646,4.41401438 95.7882238,4.53428683 96.0275779,4.84072357 C96.266535,5.14596949 96.2851911,5.56950317 96.0728289,5.89459603 C94.0385176,9.02564912 92.9632105,12.6552573 92.9632105,16.3936267 C92.9632105,27.0327768 101.618858,35.6888208 112.258008,35.6888208 C114.398698,35.6888208 116.512,35.3347514 118.539961,34.636933 C118.904351,34.5099126 119.312007,34.6309789 119.550964,34.9366218" id="Combined-Shape" stroke="#FFFFFF" stroke-width="3" transform="translate(100.260387, 25.052169) rotate(14.000000) translate(-100.260387, -25.052169) "></path>
            <ellipse id="Oval" fill="#000000" transform="translate(90.222933, 59.486206) rotate(-55.000000) translate(-90.222933, -59.486206) " cx="90.222933" cy="59.4862062" rx="18.5" ry="21.5"></ellipse>
            <ellipse id="Oval" fill="#000000" transform="translate(70.222933, 41.486206) rotate(-55.000000) translate(-70.222933, -41.486206) " cx="70.222933" cy="41.4862062" rx="18.5" ry="21.5"></ellipse>
            <path d="M0,68.5359282 C0,57.317875 9.12805585,48.1908392 20.3461091,48.1908392 C21.1927161,48.1908392 22.0495232,48.2469396 22.9104104,48.3611806 C25.1656491,30.5722328 40.3382752,17 58.5607266,17 C72.3645013,17 84.8973454,24.8989456 90.8939752,37.2461482 C104.317287,38.1508957 115.003916,49.4179094 115.003916,63.0309425 C115.003916,77.2835209 103.407439,88.8799973 89.1507808,88.8799973 L20.3461091,88.8799973 C9.12805585,88.8799973 0,79.7539814 0,68.5359282 Z M4.6695988,68.5359282 C4.6695988,77.1805 11.7025572,84.2124385 20.3461091,84.2124385 L89.1507808,84.2124385 C100.830898,84.2124385 110.334317,74.7100395 110.334317,63.0309425 C110.334317,51.4650664 100.920659,41.9667474 89.3507024,41.8586266 C88.4296348,41.8504665 87.6013879,41.3006819 87.2321448,40.4571349 C82.2555235,29.0442601 71.00177,21.6695988 58.5607266,21.6695988 C41.9203083,21.6695988 28.2032343,34.6747069 27.3331671,51.2753448 C27.2974668,51.9791506 26.9445439,52.627876 26.3743591,53.0430195 C25.8072344,53.4561229 25.0820084,53.590764 24.4006427,53.4092025 C23.0338314,53.0440395 21.66906,52.859418 20.3461091,52.859418 C11.7025572,52.859418 4.6695988,59.8913564 4.6695988,68.5359282 Z M89.2506396,52.3990881 C87.9613489,52.386848 86.9280803,51.3311393 86.9393004,50.0418485 C86.9515405,48.7617379 87.9939891,47.7305093 89.2720598,47.7305093 L89.29654,47.7305093 C97.6575494,47.80905 104.458966,54.673707 104.458966,63.0306365 C104.458966,64.3209472 103.415497,65.3644159 102.124167,65.3644159 C100.836916,65.3644159 99.7914072,64.3209472 99.7914072,63.0306365 C99.7914072,57.2237282 95.0636679,52.4551886 89.2506396,52.3990881 Z M58.5607266,32.2121004 C57.2714359,32.2121004 56.2259272,31.1676117 56.2259272,29.877301 C56.2259272,28.5880103 57.2714359,27.5435216 58.5607266,27.5435216 C68.6649305,27.5435216 77.8052265,33.5340314 81.8495601,42.8048884 C82.3636444,43.9860582 81.8240599,45.3630697 80.6418701,45.8771539 C80.3379075,46.009755 80.0206849,46.0719756 79.7095823,46.0719756 C78.8099348,46.0719756 77.9510877,45.5487112 77.5685845,44.6704839 C74.2688571,37.103041 66.8085151,32.2121004 58.5607266,32.2121004 Z" id="Combined-Shape" fill="#FFFFFF"></path>
            <path d="M109.754742,20.5424429 C109.288062,21.0085993 109.439432,21.3055776 110.09048,21.2023947 L111.811068,20.9300336 C112.463687,20.8273745 113.239916,21.2238693 113.540037,21.8110168 L114.331455,23.3624272 C114.630529,23.9500985 114.959981,23.8977214 115.063164,23.24615 L115.336049,21.5260853 C115.438708,20.8745139 116.056234,20.2575114 116.707805,20.1548522 L118.428918,19.8819674 C119.079442,19.7793082 119.132342,19.4498561 118.544147,19.150259 L116.992213,18.3588407 C116.405066,18.0597673 116.008047,17.2814433 116.110706,16.6303956 L116.384639,14.9087596 C116.487822,14.2571882 116.190319,14.1058183 115.724687,14.5724985 L114.492253,15.8049322 C114.025573,16.2710886 113.163446,16.4072691 112.57525,16.1081957 L111.023316,15.3167774 C110.436169,15.0182278 110.1989,15.2534011 110.498498,15.8410724 L111.29044,17.3945779 C111.590037,17.9817254 111.452809,18.8443766 110.9877,19.3100092 L109.754742,20.5424429 Z" id="Combined-Shape" fill="#FFFFFF"></path>
        </g>
    </g>
</svg>