<?xml version="1.0" encoding="UTF-8"?>
<svg width="150px" height="150px" viewBox="0 0 150 150" version="1.1" xmlns="http://www.w3.org/2000/svg" xmlns:xlink="http://www.w3.org/1999/xlink">
    <!-- Generator: Sketch 50.2 (55047) - http://www.bohemiancoding.com/sketch -->
    <title>icon/few clouds 2d</title>
    <desc>Created with Sketch.</desc>
    <defs>
        <path d="M22.1621075,97.726922 C22.1621075,105.432003 28.4289068,111.698802 36.134897,111.698802 L97.4618872,111.698802 C107.870793,111.698802 116.3432,103.230032 116.3432,92.8202172 C116.3432,82.5113188 107.952616,74.0452758 97.6409906,73.9489054 C96.8191153,73.9407231 96.0808822,73.4515981 95.7517684,72.6997277 C91.3160055,62.5262932 81.2853082,55.9531091 70.1963556,55.9531091 C55.3625972,55.9531091 43.1381111,67.5448239 42.3626026,82.3422162 C42.3307822,82.9695325 42.0162149,83.5468453 41.5079977,83.9168711 C41.0025081,84.2868968 40.3542812,84.4069051 39.7487845,84.2450757 C38.5286997,83.9186894 37.3104332,83.7541325 36.134897,83.7541325 C28.4289068,83.7541325 22.1621075,90.0218409 22.1621075,97.726922 M87.8075798,57.0886425 C92.5360903,60.2043137 96.451817,64.5582527 99.0156316,69.8377106 C105.556086,70.2795595 111.353762,73.4906918 115.277671,78.2837522 C117.034157,75.5108322 117.992405,72.2896992 117.992405,68.9667409 C117.992405,59.3551637 110.172771,51.5346201 100.560284,51.5346201 C95.7063107,51.5346201 91.0841712,53.5793077 87.8075798,57.0886425 M18,97.726922 C18,87.7271359 26.1342018,79.5929341 36.134897,79.5929341 C36.8876766,79.5929341 37.651366,79.6429376 38.4205104,79.7447629 C40.4306501,63.8891153 53.9524992,51.7919107 70.1963556,51.7919107 C75.1185159,51.7919107 79.850663,52.9347174 84.1109592,54.9921332 C88.1930611,50.1954361 94.2143888,47.3725126 100.560284,47.3725126 C112.466567,47.3725126 122.154513,57.0604588 122.154513,68.9667409 C122.154513,73.6879782 120.596223,78.252841 117.765117,81.9894644 C119.505238,85.226053 120.505307,88.9117637 120.505307,92.8202172 C120.505307,105.523828 110.167316,115.860001 97.4618872,115.860001 L36.134897,115.860001 C26.1342018,115.860001 18,107.725799 18,97.726922 Z M97.5508934,83.3438312 C102.730344,83.3938347 106.946092,87.6441302 106.946092,92.8199445 C106.946092,93.9691153 107.877975,94.9009982 109.025327,94.9009982 C110.176317,94.9009982 111.106381,93.9691153 111.106381,92.8199445 C111.106381,85.3712449 105.042323,79.2544561 97.5918054,79.1817237 C96.4871831,79.1853604 95.5016601,80.0936053 95.4907502,81.2418669 C95.4789312,82.3919469 96.4017226,83.3320122 97.5508934,83.3438312 Z M70.1963556,65.3516715 C77.5459574,65.3516715 84.1973288,69.7101563 87.1384424,76.4542614 C87.4793751,77.2370431 88.2448829,77.7043483 89.0467568,77.7043483 C89.3240488,77.7043483 89.6067958,77.6479808 89.8777237,77.5306999 C90.9314333,77.0706679 91.4123758,75.844219 90.9541621,74.7914186 C87.3493661,66.529026 79.2024362,61.189564 70.1963556,61.189564 C69.0453665,61.189564 68.1153018,62.1214469 68.1153018,63.2706177 C68.1153018,64.4197885 69.0453665,65.3516715 70.1963556,65.3516715 Z M119.53924,52.0659298 C119.006476,52.0659298 118.47553,51.8622792 118.069138,51.4567965 C117.255445,50.6449219 117.255445,49.3257393 118.069138,48.5138647 L122.361254,44.2235664 C123.170402,43.4098735 124.489584,43.4098735 125.303277,44.2235664 C126.114243,45.0363502 126.114243,46.3537145 125.303277,47.1655891 L121.011161,51.4567965 C120.604769,51.8622792 120.072004,52.0659298 119.53924,52.0659298 Z M123.046211,61.1965644 C122.749827,60.0864873 123.408054,58.9454989 124.518132,58.6482055 L130.379448,57.0780963 C131.487707,56.7780755 132.629605,57.4381214 132.927807,58.5491077 C133.224191,59.6591849 132.567782,60.7992641 131.457705,61.0974667 L125.59457,62.6675758 C125.414558,62.7166701 125.233636,62.739399 125.054533,62.739399 C124.136287,62.739399 123.296229,62.1257199 123.046211,61.1965644 Z M125.036804,70.6494034 L130.896302,72.2204217 C132.006379,72.517715 132.667334,73.6587035 132.367314,74.7678715 C132.120024,75.6979361 131.278147,76.3116151 130.359901,76.3116151 C130.180798,76.3116151 129.999876,76.2879771 129.818955,76.2388828 L123.958547,74.6687737 C122.849379,74.3723894 122.188424,73.2304919 122.488445,72.1204147 C122.784829,71.0103375 123.926727,70.3475642 125.036804,70.6494034 Z M85.2808587,49.9288721 L80.9887421,45.639483 C80.1759584,44.8266993 80.1759584,43.5084258 80.9887421,42.6965512 C81.8006168,41.8837674 83.1179811,41.8837674 83.931674,42.695642 L88.2228814,46.9859403 C89.034756,47.7978149 89.034756,49.1151792 88.2228814,49.927963 C87.8164895,50.3343548 87.2837252,50.5380054 86.7509609,50.5380054 C86.2181966,50.5380054 85.6854323,50.3343548 85.2808587,49.9288721 Z M95.4164723,43.4796056 L93.8436357,37.6191983 C93.5463423,36.5091211 94.2054791,35.3681327 95.3137379,35.0708393 C96.4210876,34.7753642 97.5648035,35.4308643 97.8611877,36.5409415 L99.4349335,42.4013489 C99.7313177,43.511426 99.072181,44.6524144 97.9648313,44.9497078 C97.7839096,44.9988021 97.6020788,45.021531 97.4229754,45.021531 C96.5047298,45.021531 95.6646714,44.4087611 95.4164723,43.4796056 Z M108.888682,45.5092013 C107.778604,45.2119079 107.120377,44.0709195 107.416761,42.9608423 L108.984143,37.1013441 C109.283254,35.9894486 110.424243,35.3294027 111.532502,35.6285144 C112.642579,35.9258078 113.302625,37.0667962 113.00624,38.1768734 L111.437041,44.0372808 C111.187932,44.9673454 110.346965,45.5801153 109.428719,45.5801153 C109.248707,45.5801153 109.067785,45.5573864 108.888682,45.5092013 Z" id="path-1"></path>
    </defs>
    <g id="icon/few-clouds-2d" stroke="none" stroke-width="1" fill="none" fill-rule="evenodd">
        <mask id="mask-2" fill="white">
            <use xlink:href="#path-1"></use>
        </mask>
        <use id="Mask" fill="#FFFFFF" xlink:href="#path-1"></use>
    </g>
</svg>