<?xml version="1.0" encoding="UTF-8"?>
<svg width="150px" height="150px" viewBox="0 0 150 150" version="1.1" xmlns="http://www.w3.org/2000/svg" xmlns:xlink="http://www.w3.org/1999/xlink">
    <!-- Generator: Sketch 50.2 (55047) - http://www.bohemiancoding.com/sketch -->
    <title>icon/few clouds 2n</title>
    <desc>Created with Sketch.</desc>
    <defs></defs>
    <g id="icon/few-clouds-2n" stroke="none" stroke-width="1" fill="none" fill-rule="evenodd">
        <path d="M83.1628692,53.6064545 C80.7117596,52.9920524 78.1621999,52.6695988 75.5607266,52.6695988 C58.9203083,52.6695988 45.2032343,65.6747069 44.3331671,82.2753448 C44.2974668,82.9791506 43.9445439,83.627876 43.3743591,84.0430195 C42.8072344,84.4561229 42.0820084,84.590764 41.4006427,84.4092025 C40.0338314,84.0440395 38.66906,83.859418 37.3461091,83.859418 C28.7025572,83.859418 21.6695988,90.8913564 21.6695988,99.5359282 C21.6695988,108.1805 28.7025572,115.212438 37.3461091,115.212438 L106.150781,115.212438 C117.830898,115.212438 127.334317,105.71004 127.334317,94.0309425 C127.334317,92.3419704 127.133571,90.6970889 126.75468,89.1191013 C125.31284,79.583634 117.68875,72.3086256 108.5,72.3086256 C107.225045,72.3086256 105.980214,72.4486843 104.77784,72.7154065 C101.567391,62.9436154 93.318451,55.5134974 83.1628692,53.6064545 Z M89.1210459,50.6557016 C89.1815067,49.2424186 89.3476578,47.8161864 89.625632,46.3861331 C91.9545142,34.4050731 101.61179,25.2085439 113.655227,23.5017741 C114.172433,23.4275098 114.681034,23.6924034 114.918991,24.1616823 C115.15673,24.629275 115.071942,25.1974667 114.706463,25.5752035 C111.201018,29.2161186 108.837534,33.7672454 107.870921,38.7400374 C105.120005,52.8922719 114.352287,66.6361984 128.451253,69.3767598 C131.28809,69.928185 134.180181,70.0015707 137.048059,69.5957169 C137.56379,69.5206178 138.072711,69.7866697 138.310348,70.2547904 C138.547984,70.722911 138.462567,71.2915284 138.098242,71.6689417 C134.9422,74.9450612 131.14029,77.3626003 127.015187,78.8193361 C130.149443,83.0964398 132.003916,88.3601363 132.003916,94.0309425 C132.003916,108.283521 120.407439,119.879997 106.150781,119.879997 L37.3461091,119.879997 C26.1280558,119.879997 17,110.753981 17,99.5359282 C17,88.317875 26.1280558,79.1908392 37.3461091,79.1908392 C38.1927161,79.1908392 39.0495232,79.2469396 39.9104104,79.3611806 C42.1656491,61.5722328 57.3382752,48 75.5607266,48 C80.3018795,48 84.8931006,48.93184 89.1210459,50.6557016 Z M127.662401,38.1771399 L128.923833,36.9114802 C129.399683,36.4332943 129.540081,35.5473862 129.233564,34.9444094 L128.423333,33.3490219 C128.116817,32.7455072 128.359565,32.5039937 128.960272,32.8105921 L130.548047,33.6233468 C131.149826,33.9304831 132.031864,33.7906312 132.509322,33.3119074 L133.770217,32.0462476 C134.246604,31.5669859 134.550976,31.7224367 134.44541,32.3915743 L134.165152,34.1596251 C134.060122,34.8282247 134.466309,35.6275321 135.067016,35.9346684 L136.654791,36.7474232 C137.25657,37.0550973 137.202448,37.3934314 136.536901,37.4988582 L134.77604,37.7790999 C134.109422,37.8845267 133.477634,38.5181634 133.372604,39.187301 L133.093417,40.9537381 C132.987851,41.6228757 132.650791,41.6766649 132.34481,41.0731501 L131.535115,39.4799142 C131.228063,38.8769373 130.433907,38.4697531 129.766217,38.57518 L128.005892,38.8548838 C127.339809,38.9608485 127.184944,38.6558637 127.662401,38.1771399 Z M106.25064,83.3990881 C104.961349,83.386848 103.92808,82.3311393 103.9393,81.0418485 C103.95154,79.7617379 104.993989,78.7305093 106.27206,78.7305093 L106.29654,78.7305093 C114.657549,78.80905 121.458966,85.673707 121.458966,94.0306365 C121.458966,95.3209472 120.415497,96.3644159 119.124167,96.3644159 C117.836916,96.3644159 116.791407,95.3209472 116.791407,94.0306365 C116.791407,88.2237282 112.063668,83.4551886 106.25064,83.3990881 Z M75.5607266,63.2121004 C74.2714359,63.2121004 73.2259272,62.1676117 73.2259272,60.877301 C73.2259272,59.5880103 74.2714359,58.5435216 75.5607266,58.5435216 C85.6649305,58.5435216 94.8052265,64.5340314 98.8495601,73.8048884 C99.3636444,74.9860582 98.8240599,76.3630697 97.6418701,76.8771539 C97.3379075,77.009755 97.0206849,77.0719756 96.7095823,77.0719756 C95.8099348,77.0719756 94.9510877,76.5487112 94.5685845,75.6704839 C91.2688571,68.103041 83.8085151,63.2121004 75.5607266,63.2121004 Z" id="Combined-Shape" fill="#FFFFFF"></path>
    </g>
</svg>