<?xml version="1.0" encoding="UTF-8"?>
<svg width="316px" height="73px" viewBox="0 0 316 73" version="1.1" xmlns="http://www.w3.org/2000/svg" xmlns:xlink="http://www.w3.org/1999/xlink">
    <!-- Generator: Sketch 50.2 (55047) - http://www.bohemiancoding.com/sketch -->
    <title>skyline/hong kong</title>
    <desc>Created with Sketch.</desc>
    <defs></defs>
    <g id="skyline/hong-kong" stroke="none" stroke-width="1" fill="none" fill-rule="evenodd" fill-opacity="0.2">
        <path d="M0,90.4538769 L0.229748561,63.4000265 L11.8789579,63.6297751 L15.3280582,63.8987724 L15.2897667,79.4948705 L17.2818782,79.4948705 L17.4350439,78.152756 C17.4350439,78.152756 19.2739897,78.0378817 19.4654468,78.0378817 C19.6578613,78.0378817 27.475056,78.8046676 27.475056,78.8046676 L27.7048046,63.4000265 L33.3757649,63.5149008 L36.6716995,64.3199781 L37.0163223,79.8394934 L38.3574796,80.0309505 L44.219897,80.2224076 L44.2581884,71.6776757 L42.9945713,71.2938042 L43.0328628,66.1206324 L45.0249743,65.5079696 L45.17814,63.5149008 L46.4810058,63.2085694 L46.4810058,56.4644918 C46.4810058,56.4644918 45.8683429,56.3496176 49.6237746,56.3496176 C53.3792063,56.3496176 60.314741,57.8448978 60.314741,57.8448978 L60.4296153,65.010181 L60.4679067,66.2355067 L66.1771584,66.4652553 L66.1771584,54.8543374 C66.1771584,54.8543374 69.2433444,54.2799659 71.2364132,54.166049 C73.2285247,54.0511747 73.6880218,54.1277575 73.6880218,54.1277575 L75.0674705,54.7011716 L75.4130506,84.935125 L77.0988307,85.2424137 L76.9064162,58.0746463 L79.1292336,57.8831892 L79.2441078,57.1929862 L84.3024053,57.1164034 L85.2989397,57.7673576 L85.6435626,56.4262004 L91.392063,56.0624319 L95.1666404,57.3652977 L95.4921175,58.4192692 L95.5495547,64.4348523 L95.9324689,64.5305809 L95.9899061,64.1093752 L96.6035262,63.9935437 L96.7184005,60.9484179 L99.7261921,60.3730892 L103.519915,60.7186694 L103.539061,64.3199781 L105.512984,67.2138526 L108.080424,67.1372698 L108.348464,65.7568639 L116.893196,65.4888239 L116.854905,55.717809 C116.854905,55.717809 118.809682,54.7595661 119.327573,54.6638375 C119.844508,54.5681089 119.901945,54.5681089 119.901945,54.5681089 L121.914159,54.8552946 L122.105616,61.830078 L126.263108,62.0215352 L126.626877,75.7394388 L129.079443,75.7777303 L129.271857,41.405431 L132.337086,37.7648736 C132.337086,37.7648736 132.279649,26.7484301 132.375377,26.6909929 C132.471106,26.6335558 132.681709,26.6718472 132.681709,26.6718472 L132.930603,35.0643707 L135.364023,35.0059762 C135.364023,35.0059762 135.344877,26.5952643 135.440606,26.5569729 C135.536334,26.5186815 135.786186,26.4985785 135.786186,26.4985785 L136.188246,37.8998508 L138.908852,41.271411 L139.368349,58.2077091 L140.211718,54.0693631 L148.258661,57.366255 L148.641575,59.8944464 L149.63811,60.0476121 L149.791275,41.9616139 L157.225556,41.271411 L161.363902,42.6508596 L161.977522,75.7585845 L167.188028,75.9892904 L167.495317,80.2808021 L170.866877,80.662759 L170.713711,69.9335012 L173.626731,69.9335012 L173.741606,64.0710838 L176.921709,62.3470123 L188.647501,62.3470123 L188.647501,59.588115 L192.709264,59.588115 L193.246301,69.2442556 L195.391578,69.3208384 L195.391578,63.8796267 L204.320182,63.726461 L204.28189,66.5619411 L207.423702,66.3321925 L207.423702,59.6646978 L208.362799,58.9744949 L208.477673,57.6716291 L208.841442,57.5759005 L208.841442,56.5228863 L210.450639,54.7212746 L212.060794,56.2155976 L212.328834,58.897912 L214.896274,58.8596206 L214.819691,56.0241404 L217.502005,53.6864488 L221.179897,53.3801174 L225.893572,53.5332831 L228.039806,56.3697206 L228.039806,68.0955128 L230.414832,68.324304 L232.101569,70.3173728 L238.078861,69.7037527 L238.385192,52.0006688 L240.454844,51.7326288 L240.722884,51.0424258 L244.171984,51.0807172 L244.210276,52.115543 L245.513141,52.0006688 L245.589724,51.1573001 L248.654953,50.965843 L248.884702,51.7326288 L252.29551,51.6560459 C252.29551,51.6560459 251.528725,10.3290662 251.644556,10.0993177 C251.75943,9.86861181 251.989179,9.31242884 251.989179,9.31242884 C251.989179,9.31242884 251.62541,-1.51160024 251.778576,-2.01034608 C251.931742,-2.50813463 252.276365,-3.04517189 252.276365,-3.04517189 C252.276365,-3.04517189 252.218928,-10.7474924 252.410385,-11.2835724 C252.602799,-11.8206096 252.966568,-12.3557323 252.966568,-12.3557323 C252.966568,-12.3557323 252.928276,-14.3488011 253.215462,-15.2304612 C253.502648,-16.111164 253.809936,-16.4184527 253.809936,-16.4184527 C253.809936,-16.4184527 254.633202,-19.4262443 255.514862,-20.9981074 C256.395565,-22.5680559 257.124059,-23.4880074 257.46964,-23.7187132 C257.813305,-23.9484618 258.024865,-23.9666502 258.024865,-23.9666502 C258.024865,-23.9666502 262.603563,-24.6185618 263.446931,-24.2739389 C264.2903,-23.9283588 266.781157,-18.2966472 267.546986,-15.843124 C268.313772,-13.3915154 268.888143,-5.26703193 268.888143,-5.26703193 L269.34764,-4.30974626 L269.558243,7.60750306 C269.558243,7.60750306 269.999552,7.9521259 269.999552,8.16368603 C269.999552,8.37428888 270.248446,22.8972698 270.305883,23.0121441 C270.36332,23.1270184 270.478194,23.3002871 270.49734,23.5099326 C270.516486,23.7214928 270.612214,59.5297206 270.612214,59.5297206 L270.651463,62.1364095 L271.264126,78.842959 L274.788852,78.842959 L276.935086,77.2337618 L280.231021,77.0040132 L280.077855,60.6794207 L283.640872,59.990175 L293.221387,59.990175 L294.216965,77.770799 L300.807876,77.9239647 L299.734759,54.5489632 L301.115165,43.3602083 L310.464017,42.4402568 L312.611209,43.5899569 L314.833069,52.6324773 L316,93.3085028 L0.132105423,93.3085028 L0,90.4538769 Z" id="Fill-1" fill="#231F20"></path>
    </g>
</svg>