<?xml version="1.0" encoding="UTF-8"?>
<svg width="316px" height="73px" viewBox="0 0 316 73" version="1.1" xmlns="http://www.w3.org/2000/svg" xmlns:xlink="http://www.w3.org/1999/xlink">
    <!-- Generator: Sketch 50.2 (55047) - http://www.bohemiancoding.com/sketch -->
    <title>skyline/nyc</title>
    <desc>Created with Sketch.</desc>
    <defs></defs>
    <g id="skyline/nyc" stroke="none" stroke-width="1" fill="none" fill-rule="evenodd" fill-opacity="0.2">
        <path d="M24.7872,17.1149 C24.7552,17.2109 24.7082,17.7259 24.7082,17.7259 L23.6822,17.8839 C23.6702,17.8459 23.6592,17.8099 23.6502,17.7739 C23.5542,17.4019 22.8952,16.9979 22.8952,16.9979 C22.8952,16.9979 22.8622,16.6959 22.8282,16.3169 C23.3082,16.4889 24.8132,17.0349 24.7872,17.1149 Z M24.8192,19.3049 C24.7662,19.6979 24.5212,20.0809 24.2982,20.1439 C24.1232,20.1949 23.8312,19.9319 23.8942,19.2719 C23.9442,18.7609 23.8272,18.3649 23.7272,18.0389 L24.6922,18.0719 L24.8622,18.2309 L24.8192,19.3049 Z M307.2172,59.6139 L306.9342,46.2829 L306.4102,45.7159 L305.7772,22.6389 L303.6902,20.1479 L300.3492,20.2789 L298.7992,18.8809 L298.7992,13.0239 L294.3452,13.5489 L294.2702,7.9099 L294.6702,7.8669 L294.7822,6.0529 L289.5172,-0.0001 L271.1302,4.4359 L271.0922,6.3369 L271.6842,6.8399 L271.8402,16.2369 C271.8402,16.2369 267.5902,16.6739 267.5352,16.7059 C267.4802,16.7389 262.9692,19.7109 262.9692,19.7109 L263.5802,45.3219 L263.3732,45.3329 L263.2972,40.6349 L259.8102,40.1979 L259.7572,38.0889 L258.6202,37.9799 L257.6372,37.9689 L255.2552,38.2969 L254.8402,25.5019 L254.8942,25.4309 L254.8892,24.8899 L250.3652,23.8199 L250.3102,22.6169 L247.5682,21.8859 L245.1212,22.4529 L245.1422,24.2889 L237.3422,25.2939 L237.0792,16.2029 C237.0792,16.2029 236.7062,16.0939 235.5922,15.9199 C234.4772,15.7449 232.7992,15.6959 232.7992,15.6959 L232.7992,15.5809 L233.0352,15.5039 L233.0962,14.5429 C233.0962,14.5429 230.2232,13.9199 228.9992,13.9859 C227.7752,14.0519 224.0222,15.0559 224.0222,15.0559 L224.0192,16.3189 L224.2122,16.3729 L224.2192,16.5479 L219.8972,17.6239 L220.0512,23.9609 L215.4392,23.1749 L206.8952,25.0759 L206.9172,36.7559 L203.5962,36.0679 L196.8542,37.0729 L196.8442,36.5489 L193.0192,35.9689 L192.9322,33.2489 L192.7672,33.1719 C192.7672,33.1719 192.7022,31.6209 192.7022,31.5659 C192.7022,31.5109 192.4782,31.3969 192.4782,31.3969 L192.4182,30.1949 L192.2762,29.9709 L192.2602,29.6919 C192.2602,29.6919 192.2112,29.6429 192.1832,29.6539 C192.1562,29.6649 192.1502,29.7629 192.1502,29.7629 L192.0962,29.7959 L192.0742,29.9879 L190.6042,26.4959 C190.6042,26.4959 190.5882,25.5459 190.5602,25.4909 C190.5332,25.4369 190.4572,25.3599 190.4572,25.3599 L190.4742,25.2729 C190.4742,25.2729 190.4462,23.8769 190.4432,23.8579 C190.4402,23.8389 190.3342,23.8079 190.3342,23.8079 L190.3172,23.6169 L190.2442,23.5409 C190.2442,23.5409 190.1732,22.5909 190.1732,22.5709 C190.1732,22.5519 190.1382,22.4869 190.1382,22.4869 L190.0772,20.7849 C190.0772,20.7849 190.0662,22.4509 190.0332,22.4949 C190.0012,22.5379 190.0062,22.5769 190.0012,22.6099 C189.9952,22.6419 189.9602,23.5739 189.9602,23.5739 L189.8862,23.5929 C189.8862,23.5929 189.8702,23.9039 189.8672,23.9259 C189.8642,23.9479 189.8092,23.8929 189.7992,23.8739 C189.7882,23.8549 189.7412,23.8709 189.7112,23.8989 C189.6822,23.9259 189.7062,25.2369 189.7062,25.2859 C189.7062,25.3359 189.8092,25.3629 189.8092,25.3629 L189.6622,25.4559 L189.6512,25.6689 L189.5972,25.7019 C189.5972,25.7019 189.5752,26.4989 189.5802,26.5539 C189.5862,26.6089 188.7552,28.9139 188.7552,28.9139 L177.4122,28.9799 L176.7992,29.9629 L176.7992,37.5129 L172.7682,37.6439 L172.7912,39.4469 L171.4642,39.4139 C171.4642,39.4139 171.2162,39.4139 171.0852,39.5449 C170.9532,39.6769 171.0692,39.9709 171.0692,39.9709 L170.9802,40.0179 C170.9802,40.0179 170.9862,40.0939 170.9882,40.1079 C170.9912,40.1219 171.0822,40.1379 171.0822,40.1379 L171.1122,41.5069 L170.6752,41.5449 L170.0362,42.2749 L170.0472,42.8079 L170.1452,42.8079 L170.1832,43.1979 L169.9102,42.9999 L169.8892,35.9489 L166.4962,35.8899 L166.3642,35.7949 L166.3092,34.7939 L166.2332,34.7279 L166.2172,33.7359 L165.9932,33.7009 L165.9602,31.9609 C165.9602,31.9609 165.7972,31.9299 165.7742,31.9279 C165.7532,31.9249 165.5102,31.9759 165.5102,31.9759 L165.3152,31.9679 L165.2592,31.8749 L164.0432,31.8589 L163.8462,31.8529 L163.4962,31.9679 L163.2892,31.9629 L162.9062,32.0549 L162.8902,32.2189 L162.8032,32.2629 L162.7942,33.4819 L162.7182,33.5059 L162.7012,33.8229 L162.6442,33.8439 L162.6392,33.9379 L162.5982,33.9619 L162.5872,34.9509 L162.5052,34.9839 L162.4832,35.7599 L161.2542,35.7759 L161.2322,35.2729 L160.4392,35.2569 L160.3302,35.3549 L160.3362,35.7599 L159.8832,35.7539 L159.4242,36.3659 L159.4132,38.9339 L158.8992,38.8899 L158.8552,38.2339 L157.7412,38.1469 L157.3042,38.2559 L157.3152,38.9279 L156.1512,38.9009 L155.8842,39.0049 L155.8232,40.1139 L155.5832,40.6089 L155.5012,40.8079 L155.3092,40.8079 L155.2822,40.5319 L154.9722,40.3689 L154.9442,40.0289 L154.7742,40.0379 L154.7852,40.2699 L154.7032,40.2929 L154.6872,40.0289 L154.5562,40.1289 L154.5612,40.6289 L152.9502,40.5519 L152.6222,40.9639 L152.6552,41.8079 L152.3442,41.8079 L152.3492,40.5109 L151.1582,40.2959 L150.9452,40.3659 L150.9292,41.2149 L149.7262,41.1539 L149.7372,33.8459 L146.8692,33.6559 L146.8642,33.1949 L144.1892,33.0129 L143.7992,33.1319 L143.7992,33.4929 L138.1472,33.1429 L137.3022,34.3009 L137.2622,43.4849 L137.0722,43.4629 L137.1222,38.5189 C137.1222,38.5189 137.1612,38.4149 137.1832,38.3549 C137.2052,38.2949 137.1752,37.9669 137.1752,37.9669 C137.1752,37.9669 137.1822,37.5819 137.1872,37.5349 C137.1922,37.4889 137.2592,37.3329 137.2672,37.2729 C137.2752,37.2129 137.1692,36.3689 137.1692,36.3689 L135.8522,36.2159 L135.8202,35.0139 C135.8202,35.0139 135.1812,34.9209 135.1422,34.8879 C135.1042,34.8559 135.1102,34.5879 135.1102,34.5549 C135.1102,34.5229 135.1322,34.4289 135.1482,34.3969 C135.1652,34.3639 135.1482,34.2059 135.0882,34.1459 L135.0662,34.0089 L134.4112,33.9219 L134.3892,33.8179 C134.3892,33.8179 132.7442,33.4009 132.7172,33.4169 C132.6902,33.4329 131.0892,33.8079 131.0892,33.8079 L130.8492,33.8079 L130.8382,32.3079 C130.8382,32.3079 130.8972,32.1779 130.8972,32.1509 C130.8972,32.1229 130.1282,31.6149 130.1282,31.6149 C130.1282,31.6149 129.3512,31.9519 129.3132,31.9849 C129.2752,32.0169 129.3302,32.0279 129.3362,32.0539 C129.3412,32.0819 129.3302,33.3099 129.3302,33.3099 L128.7722,33.5259 L128.8062,34.2999 L128.6642,34.3859 L128.3252,34.3759 L128.3572,30.7479 L127.1612,30.5779 L127.1552,30.4639 L126.5272,30.3709 L126.4892,27.8799 L124.2442,27.5349 L123.5602,27.8579 L123.5502,29.9939 L123.2332,29.9499 L122.8402,30.1089 L122.8172,30.4669 L122.7852,30.4879 C122.7852,30.4879 122.7772,30.7529 122.7772,30.7669 C122.7772,30.7809 122.7232,30.7939 122.7232,30.7939 L122.6542,37.5059 L122.4842,37.5629 L122.4792,37.7899 L122.3972,37.8659 L122.4082,38.1719 C122.4082,38.1719 122.3812,38.1829 122.3532,38.2159 C122.3262,38.2489 122.3642,38.3959 122.3642,38.3959 L122.2772,38.4509 L122.3262,38.6259 L122.3372,39.1389 L122.0202,39.2589 L121.9872,40.4829 L120.4142,40.3629 L119.9332,40.4609 L119.9172,35.2659 L119.6712,35.2499 L119.9062,34.9379 L119.9332,34.5939 L119.6052,34.5719 L119.5952,34.3699 L113.4922,33.9059 L112.4872,34.4139 L112.4922,34.8079 L111.7992,34.8079 L111.7992,34.9879 L112.0772,35.0749 L112.1702,46.6289 L111.9872,46.8369 L112.0112,48.6229 C112.0112,48.6229 111.8282,48.6339 111.7902,48.6389 C111.7522,48.6449 111.7652,48.1749 111.7652,48.1749 L111.6122,48.1419 L111.5772,47.6449 L111.1802,47.3719 L110.5472,47.3619 L109.9542,47.6219 L109.9322,48.0039 L109.6812,48.0699 L109.6382,48.7469 L109.3092,49.0199 L109.2882,49.3699 L108.3152,49.3589 L107.6822,49.8399 L107.6982,54.5929 L107.5512,54.6309 L107.5452,54.8329 L107.0862,54.8059 L107.0532,55.6249 L106.1302,55.6359 L106.0862,56.0239 L104.9062,56.0129 L104.5572,56.0999 L104.8652,31.1799 L104.8732,30.8689 L104.5922,30.8059 L104.6022,29.7359 L100.8882,29.1669 L100.9532,26.9609 L93.6982,23.3759 L92.8242,23.3109 L92.3102,23.4309 L92.1252,34.4229 L91.1632,34.7729 L90.4422,35.3629 L90.3982,26.1849 L82.7502,24.6109 L79.0682,24.8409 L79.0732,38.0729 L78.9262,37.9629 L75.7522,37.7609 L75.7302,38.8429 L75.0092,38.7879 L74.9922,38.4439 L74.1832,38.3189 L74.1622,37.1819 L72.2502,35.4009 L67.2672,34.9199 L65.6942,36.3519 L64.7992,37.1929 L64.7992,37.5749 L63.9462,38.4169 L63.9782,38.7719 L63.3092,39.4549 L63.3062,41.3339 L63.2002,41.4219 L63.0572,49.9489 L61.7992,50.7359 L61.7992,52.8659 L60.9552,52.8179 L61.0162,42.4869 L60.8782,42.3779 L60.8412,40.0829 L60.4742,39.8209 L60.5082,39.0559 L59.6562,38.3889 L59.6892,37.9739 L59.0452,37.4829 L58.9792,37.0239 L54.3312,33.4289 C54.3312,33.4289 54.2602,33.4019 54.2112,33.4119 C54.1612,33.4239 49.1412,35.3899 49.1412,35.3899 L49.1192,35.9749 C49.1192,35.9749 49.0582,35.9749 48.7642,36.0349 C48.4692,36.0949 48.0102,36.3679 48.0102,36.3679 L47.9442,37.3299 L47.5842,37.6679 L47.5172,39.8079 L47.2662,39.8079 L47.2012,51.3579 L45.7262,51.1569 L45.6612,51.8909 L45.3772,51.8439 L45.3062,50.3829 L43.5792,50.2159 L43.5622,49.9209 L41.5412,49.7549 L41.5362,48.8309 L39.0172,48.6989 L38.9632,49.6439 L37.4762,49.5459 L37.4602,48.4959 L36.6872,48.1629 L36.6492,47.4259 L35.8242,47.0979 L35.8182,46.4229 L35.1112,46.1449 L35.0952,45.5489 L34.4062,45.2649 L34.3792,44.7729 L33.6532,44.4749 L33.5812,42.7749 L33.9342,42.2219 L33.9212,41.9949 L33.5452,41.3789 L33.2052,37.9139 L32.6732,34.6829 L33.3672,34.4709 L34.9262,32.8119 L35.6492,32.6849 C35.6492,32.6849 37.1262,31.0909 37.1472,30.8139 C37.1692,30.5379 36.6182,30.1979 36.6182,30.1979 L36.7992,29.4719 L36.7992,28.6179 L33.9402,26.9319 L32.0582,29.1569 C32.0582,28.8869 32.0222,28.0369 31.8392,27.7529 C31.6542,27.4699 31.4412,26.6489 31.3562,25.9399 C31.2702,25.2309 30.9742,24.5799 30.7322,24.3099 C30.4922,24.0409 29.6902,23.5879 29.6632,23.3039 C29.6352,23.0209 29.3952,22.3829 29.2402,22.1979 C29.0852,22.0139 29.0722,21.7879 29.1432,21.5889 C29.2142,21.3909 29.2572,20.8519 29.2642,20.6829 C29.2712,20.5119 29.2222,20.4209 29.1802,20.3919 C29.1382,20.3639 29.0882,19.9809 29.0732,19.8179 C29.0592,19.6559 29.2622,19.5019 29.3092,19.3209 C29.3582,19.1399 29.2092,18.9479 29.1702,18.8959 C29.1352,18.8419 29.1402,18.6939 29.1402,18.6939 C29.3362,18.4909 29.4642,18.0769 29.4642,18.0769 L32.1262,18.0559 L32.1322,17.9659 L29.4952,17.7049 C29.5592,17.4819 29.4532,17.1789 29.4532,17.1789 L32.2212,16.1269 L32.2062,16.0209 L29.1872,16.7219 C29.0922,16.4939 28.7482,16.2609 28.7482,16.2609 L30.7952,14.0929 L30.7182,13.9799 L28.3372,16.0359 C27.9282,15.7709 27.3812,15.7979 27.3812,15.7979 L27.2102,12.7789 L27.0832,12.7899 L26.8652,15.7759 C26.3822,15.7549 25.9612,15.8719 25.9612,15.8719 L23.6502,14.0699 L23.5922,14.1339 L25.5422,16.1589 C25.2712,16.2969 24.9362,16.7589 24.9362,16.7589 L22.8192,16.2099 C22.7822,15.7839 22.7472,15.2899 22.7542,15.0139 C22.7672,14.4619 22.1592,11.8539 22.0592,11.4869 C21.9612,11.1169 21.8902,10.8769 22.0732,10.7349 C22.2582,10.5939 22.3712,10.3379 22.3712,10.2249 C22.3712,10.1119 22.2292,9.8849 22.1442,9.7999 C22.0592,9.7149 22.1312,9.5589 22.1742,9.5159 C22.2162,9.4739 22.3142,9.0909 22.3012,8.4249 C22.2852,7.7589 21.5492,6.6469 21.4652,6.5829 C21.3802,6.5189 21.3872,6.4059 21.4432,6.3209 C21.5012,6.2359 21.6212,6.1779 21.6212,6.1779 L21.6942,5.5949 C21.9392,5.4989 22.5032,5.1069 22.5342,4.7769 C22.5662,4.4469 22.1312,4.1599 22.1312,4.1599 L22.1512,3.5969 L21.8012,3.5749 L21.8332,3.2459 C22.0882,3.0329 21.9922,2.2469 21.9812,1.8849 C21.9722,1.5239 21.3972,0.5879 21.4392,0.9179 C21.4822,1.2479 21.0472,1.7159 21.0782,1.6519 C21.1102,1.5879 21.1312,1.2689 21.0782,0.8549 C21.0252,0.4399 20.6322,-0.1551 20.4932,0.0369 C20.3562,0.2279 19.5692,1.4069 19.3042,1.7899 C19.0382,2.1729 18.8912,2.8099 18.9342,2.9799 C18.9762,3.1499 18.7992,3.2569 18.7992,3.2569 L18.7992,3.5859 L18.7852,3.6709 C18.7852,3.6709 18.9962,4.1599 18.8912,4.2229 C18.7842,4.2869 18.5132,4.5209 18.5762,4.9569 C18.6412,5.3929 19.5402,5.6339 19.5402,5.6339 C19.5402,5.6339 19.5162,6.2149 19.6172,6.2709 C19.7172,6.3269 19.7402,6.3849 19.6412,6.4839 C19.5422,6.5829 19.5472,7.0789 19.5172,7.1929 C19.4892,7.3059 19.6202,8.0009 19.6762,8.2969 C19.7342,8.5949 20.0892,9.2399 20.1842,9.3459 C20.2792,9.4519 20.3452,9.6119 20.2172,9.7179 C20.0902,9.8239 19.9942,10.0789 20.0682,10.3449 C20.1432,10.6109 20.4312,10.8059 20.4312,10.8059 C20.4312,10.8059 20.5712,15.3409 20.6002,15.9919 C20.6282,16.6449 21.1102,17.7499 21.1102,17.7499 C21.1102,17.7499 21.0532,18.0609 20.5152,18.7979 C19.9762,19.5349 19.7502,20.6679 19.7782,21.6599 C19.8072,22.6519 20.4012,22.8499 20.6002,22.8499 C20.7992,22.8499 20.9112,22.6239 20.7142,23.2749 C20.5152,23.9279 21.2242,24.4089 21.4222,24.6079 C21.6212,24.8059 21.3372,25.6839 21.1102,26.2229 C20.8832,26.7619 21.8762,27.8949 22.1312,28.8869 C22.3862,29.8789 21.3932,31.6639 21.1102,32.3159 C20.8272,32.9689 21.3372,33.5349 21.7622,33.6199 C22.1872,33.7049 22.1592,34.2999 22.2162,34.6979 C22.2712,35.0939 21.9892,35.6609 21.6492,36.2559 C21.3082,36.8509 21.4782,37.7009 21.4782,37.7009 C21.4782,37.7009 21.9322,40.9889 21.9892,41.7259 C22.0452,42.4629 21.9612,43.3409 21.8192,43.5389 C21.6772,43.7379 21.6492,44.1069 21.7622,44.3619 C21.8762,44.6159 21.7902,45.7499 21.6772,46.1459 C21.5632,46.5429 21.5922,47.7619 21.6492,48.1019 C21.6882,48.3379 21.5502,48.6249 21.4142,48.8559 L20.0042,48.8439 L19.9662,49.8049 L17.5732,49.7229 L17.5312,49.8539 L16.7992,49.8199 L16.7992,49.8079 L15.7992,49.8079 L15.7992,47.8079 L15.2992,47.8079 L13.7992,47.8079 L13.7992,45.3079 L13.7992,44.3079 L13.7992,45.8079 L12.7992,45.8079 L12.7992,41.3079 L12.7992,39.8079 L11.7992,39.8079 L11.7992,41.3079 L11.7992,43.8079 L10.7992,43.8079 L10.7992,44.8079 L9.7992,44.8079 L9.7992,45.8079 L8.7992,45.8079 L8.7992,47.8079 L7.7992,47.8079 L7.7992,49.8079 L6.7992,49.8079 L6.7992,50.8079 L5.7992,50.8079 L5.7992,51.3079 L5.7992,56.7229 L2.1862,56.6939 L1.3272,56.9839 L1.1152,57.3279 L0.7992,57.3769 L0.7992,58.1689 L0.2242,58.4369 L0.3352,70.0619 L0.0002,72.6809 L315.7992,71.6859 L315.7992,60.3029 L307.2172,59.6139 Z" id="Fill-1" fill="#231F20"></path>
    </g>
</svg>