<?xml version="1.0" encoding="UTF-8"?>
<svg width="316px" height="73px" viewBox="0 0 316 73" version="1.1" xmlns="http://www.w3.org/2000/svg" xmlns:xlink="http://www.w3.org/1999/xlink">
    <!-- Generator: Sketch 50.2 (55047) - http://www.bohemiancoding.com/sketch -->
    <title>skyline/shanghai</title>
    <desc>Created with Sketch.</desc>
    <defs></defs>
    <g id="skyline/shanghai" stroke="none" stroke-width="1" fill="none" fill-rule="evenodd" fill-opacity="0.2">
        <path d="M82.3139592,74.5362015 L82.3037603,75.3011213 L78.7167967,78.7249021 L78.5525939,68.6952744 L78.5638127,68.0945574 L82.3139592,74.5362015 Z M83.517433,76.4719584 L85.5959749,80.4271035 C85.5959749,80.4271035 82.9054972,81.1614264 82.8647015,81.365405 C82.8239057,81.5693836 78.6647821,81.6101793 78.6647821,81.6101793 L78.5434149,80.3047163 C78.5434149,80.3047163 82.5791314,76.390367 82.78311,76.2689997 L82.9054972,76.1353938 C82.9054972,76.1353938 82.9309945,76.1772094 83.0839784,76.2883777 C83.2369624,76.4015858 83.517433,76.4719584 83.517433,76.4719584 Z M76.2853718,51.3683124 C76.3373863,51.3989092 76.3057696,53.8966271 76.3057696,53.8966271 C76.3057696,53.8966271 75.0421222,53.8966271 74.9911276,53.8854083 C74.9401329,53.8762293 74.8687404,50.9195595 74.8687404,50.9195595 L74.8585415,50.4820254 L76.2853718,51.3683124 Z M76.3435057,45.4315153 L76.3639035,47.9588101 L74.9258544,47.9588101 L74.9258544,44.9827624 L74.9156555,44.5442084 L76.3435057,45.4315153 Z M76.3067895,39.3978284 L76.3271874,41.9251232 L74.8901582,41.9251232 L74.8901582,38.9490755 L74.8799592,38.5105215 L76.3067895,39.3978284 Z M76.2251981,33.7302831 L76.245596,36.2575779 L74.8085667,36.2575779 L74.8085667,33.2815301 L74.7983678,32.8439961 L76.2251981,33.7302831 Z M76.388381,28.0229619 L76.4087788,30.5502567 L74.9717496,30.5502567 L74.9717496,27.574209 L74.9615507,27.135655 L76.388381,28.0229619 Z M76.4709923,21.3559214 L76.5321859,24.3931627 L75.0941368,24.3931627 L75.0941368,21.417115 L75.0839378,20.9795809 L76.4709923,21.3559214 Z M182.633693,34.8950009 L182.307328,66.9410585 L168.608125,66.7778756 L168.527553,60.7441887 L164.694796,58.6238311 L160.535672,60.4178229 L160.617263,61.6406746 L160.291917,66.7778756 L154.991534,67.1848129 L153.155726,68.1231144 L153.114931,63.3938706 L148.875235,63.2306878 L147.856362,63.7202364 L146.877265,61.884429 L146.958856,42.3147223 C146.958856,42.3147223 147.122039,40.6839135 146.999652,40.3575477 C146.877265,40.0311819 143.860422,38.7675345 143.615647,38.849126 C143.370873,38.9307174 140.476417,39.9903862 140.476417,39.9903862 C140.476417,39.9903862 140.190847,40.4391391 140.068459,40.8470963 C139.946072,41.2550535 140.394825,42.3555181 140.435621,42.6002924 C140.476417,42.8450667 140.313234,62.7819348 140.313234,62.7819348 L138.233672,66.0425327 L138.192876,54.994032 L134.359098,51.3652527 L134.297905,43.3743912 L133.685969,43.2724019 L133.502388,36.1168327 L133.033238,36.1168327 L132.951646,43.4967783 L129.691048,45.9832774 L128.426381,46.5952132 L128.263198,44.8012215 C128.263198,44.8012215 123.818504,44.4748557 123.492139,44.3932643 C123.166793,44.3116728 120.027562,46.0648689 120.027562,46.0648689 L119.924553,49.0613145 C119.924553,49.0613145 119.822564,49.0205188 119.354433,48.7563665 C118.885282,48.4911943 118.04999,48.551368 118.04999,48.551368 L117.988796,48.0628392 C117.988796,48.0628392 118.212153,47.7976671 118.150959,47.3081184 C118.090785,46.8195897 117.906185,46.778794 117.906185,46.778794 L117.967378,45.8608903 C117.967378,45.8608903 118.150959,45.1479851 118.04999,44.8216193 C117.94698,44.4952536 117.621635,44.3932643 117.621635,44.3932643 L117.580839,41.2336358 L117.050495,41.1928401 L116.968903,44.3728664 C116.968903,44.3728664 116.601742,44.5360493 116.458957,44.9021909 C116.316172,45.2703722 116.703731,45.6569117 116.703731,45.6569117 L116.724129,46.4932239 C116.724129,46.4932239 116.377365,46.7379982 116.377365,47.1051597 C116.377365,47.4713013 116.703731,47.7976671 116.703731,47.7976671 L116.743507,48.6125616 C116.743507,48.6125616 115.643042,48.7961423 115.112698,49.1021102 C114.583373,49.4080781 113.808255,50.4065533 113.808255,50.4065533 C113.808255,50.4065533 111.708295,50.8145105 111.606306,51.0184891 C111.504316,51.2224677 112.055059,51.8129858 112.055059,51.8129858 L109.771518,51.8537815 L109.526744,53.2806118 L107.365591,53.4029989 L107.202408,63.1470565 L105.877567,63.1134001 L105.714384,59.0297485 L104.837276,58.9481571 L104.695511,55.6865393 L96.5006707,55.6049479 L95.3991863,56.1352922 L95.3583906,82.8799461 L91.2400627,82.5943761 L89.7724367,80.8819757 L87.6928749,80.5964057 L84.7576228,75.8671619 C84.7576228,75.8671619 84.88001,74.8278909 84.5740421,74.3179444 C84.2690941,73.807998 83.6969341,73.8294157 83.6969341,73.8294157 L80.0283791,67.6111282 C80.0283791,67.6111282 80.2313378,67.4071496 80.6800907,66.7554379 C81.1288436,66.1027064 82.7188568,62.63711 82.0263494,59.1317378 C81.3328222,55.6253457 79.0492818,56.032283 79.0492818,56.032283 L79.0084861,21.1733606 C79.0084861,21.1733606 80.2731534,20.6838119 81.1288436,18.8898202 C81.9845338,17.0958284 82.1681145,14.0381892 81.1278237,12.1830039 C80.0885527,10.3278185 78.0293888,9.65570906 78.0293888,9.65570906 L77.8866038,7.06620076 C77.8866038,7.06620076 78.294561,6.49506069 78.294561,5.86374693 C78.294561,5.23141327 77.9477974,5.14982183 77.9477974,5.14982183 L77.8345892,-0.354540628 C77.8345892,-0.354540628 78.9462726,-1.76097306 78.7320951,-2.76046819 C78.5179175,-3.75894343 78.0793635,-4.13630383 78.0793635,-4.13630383 L78.0793635,-4.39127708 C78.0793635,-4.39127708 78.5281165,-5.00321287 78.3843116,-5.35915552 C78.2425464,-5.71611807 77.6816053,-6.00168811 77.6816053,-6.00168811 L77.6204117,-11.1705058 C77.6204117,-11.1705058 77.6204117,-11.1796848 77.722401,-11.291873 C77.8243903,-11.4050812 78.0385678,-11.8324163 77.9457576,-12.1383842 C77.8539672,-12.4443521 77.579616,-12.7493001 77.579616,-12.7493001 L77.5388203,-12.8727072 L77.5174025,-19.2429588 C77.5174025,-19.2429588 77.5785961,-19.3143513 77.6703865,-19.4367385 C77.7621768,-19.5591256 77.8335693,-20.0690721 77.7927736,-20.2832496 C77.7519779,-20.4964073 77.426632,-20.6901869 77.426632,-20.6901869 L77.2420314,-33.4827047 L76.7422838,-33.4827047 L76.4760918,-20.6300132 C76.4760918,-20.6300132 76.1507459,-20.5066062 76.0487566,-20.1812603 C75.9467673,-19.8548946 76.3139288,-19.4673352 76.3139288,-19.4673352 L76.292511,-12.7197232 C76.292511,-12.7197232 75.864156,-12.5575602 75.721371,-12.1903988 C75.5785859,-11.8232373 75.8437581,-11.4764737 75.9457474,-11.3540865 C76.0477367,-11.2316994 75.9049517,-5.87012191 75.9049517,-5.87012191 C75.9049517,-5.87012191 75.4765966,-5.78955037 75.2124444,-5.30000173 C74.9462523,-4.8104531 75.1920465,-4.76965738 75.3746073,-4.56669867 C75.5581881,-4.36272007 75.4154031,-4.11794576 75.4154031,-4.11794576 C75.4154031,-4.11794576 75.272618,-3.9955586 74.987048,-3.60799926 C74.7024979,-3.22043993 74.5382951,-2.65031975 74.7024979,-1.93639465 C74.8646608,-1.22246956 75.4561988,-0.550360082 75.4561988,-0.550360082 L75.4358009,5.1987767 C75.4358009,5.1987767 75.272618,5.28036814 75.0686394,5.54452042 C74.8646608,5.8096926 74.9054566,5.81071249 74.9054566,6.21764979 C74.9054566,6.62560699 75.2522202,6.76839201 75.2522202,6.76839201 L75.2308024,9.66284831 C75.2308024,9.66284831 72.9482819,10.7225171 72.1323675,11.905593 C71.317473,13.087649 70.2567843,14.6776621 71.031903,17.2467726 C71.8060018,19.8148631 73.0288535,20.3441876 73.0288535,20.3441876 L72.96664,56.4065838 C72.96664,56.4065838 71.946747,56.8135211 71.2134439,57.9558012 C70.479121,59.0970615 69.7866137,60.5238918 69.9905923,62.3586793 C70.193551,64.1934667 70.7238953,65.4571142 70.7238953,65.4571142 L66.2394258,65.5387056 L65.9946515,82.4587303 L60.8972264,82.376119 L61.0196135,75.2205497 L58.0639636,75.2409476 L57.9823722,75.8324855 L56.5147462,75.8732813 L56.3913391,81.8457746 L53.476485,81.8457746 L53.0685278,73.4469558 L46.5044965,70.9604567 L43.3652659,70.8380696 C43.3652659,70.8380696 42.0608228,69.1256692 40.0220567,68.1873677 C37.9832906,67.250086 36.3524817,67.6162276 36.3524817,67.6162276 L36.5564603,64.4158034 L35.5977609,63.152156 L35.5375872,59.5845703 L35.0072428,59.2582046 L34.9256514,57.0562556 L32.3973367,54.8553265 L32.1729602,50.2076742 L31.8272165,50.390235 L31.765003,52.6737754 L31.7038095,53.0603149 L31.622218,54.5687366 L29.0541275,57.0562556 L29.0133317,59.2174089 L28.5645788,59.4621832 L28.4829874,63.5386954 L28.0750302,63.9466526 L28.0342345,69.3694237 L24.6502295,71.243987 L21.5313968,71.9375142 C21.5313968,71.9375142 21.4702032,72.9778051 21.4702032,73.139968 C21.4702032,73.3041708 21.7149775,73.5479252 21.7149775,73.5479252 C21.7149775,73.5479252 21.7353754,73.8946889 21.7353754,74.017076 C21.7353754,74.1394632 22.1831084,74.6483898 22.1831084,74.6483898 C22.1831084,74.6483898 22.2453219,82.8850456 22.2453219,83.3745942 L19.394721,83.0461886 L18.8857944,82.5576599 C18.8857944,82.5576599 16.4594689,82.3128856 15.6435546,82.8014143 L13.1162597,82.6392513 C13.1162597,82.6392513 12.0565909,80.5188938 10.8337392,79.7845709 C9.60986763,79.0512678 5.6139269,79.173655 5.6139269,79.173655 C5.6139269,79.173655 1.74139322,79.6224079 0.639908796,80.2741195 C-0.460555739,80.926851 0.192175774,84.9635875 0.192175774,84.9635875 L0.192175774,93.803 L316,93.803 L316,84.9635875 L316,84.2292645 L315.99898,63.476482 L312.288609,63.0685248 L311.351328,62.4168132 L309.883702,62.5392003 L309.639947,64.8635364 L307.723568,64.9849037 L306.785267,65.7600224 L306.66288,58.9104211 L305.562415,57.6457538 L302.17739,57.7283651 L302.056023,59.359174 L300.139644,59.5631526 L300.210017,60.4290417 L298.94331,60.5932445 L298.835201,62.4984046 L296.837231,62.7013633 L296.918822,70.366879 L295.12483,70.2036961 L295.12483,54.221973 L292.27015,53.7324244 L289.090123,54.1403816 L288.438412,57.2388165 L287.051357,57.4019993 L287.296132,60.9083914 L285.747934,60.9083914 C285.747934,60.9083914 285.338957,69.4703931 285.420549,69.7141475 C285.50316,69.9589218 284.850428,70.366879 284.850428,70.366879 L282.486316,69.8773304 L282.322114,52.5911641 L278.244581,50.390235 L270.25372,50.0628494 L270.172128,36.4452382 L262.669796,33.8363519 L252.884942,35.3039779 L252.966534,30.4931427 C252.966534,30.4931427 250.276056,29.5966568 245.302038,29.8414311 C240.32802,30.0862054 236.903219,30.3299598 236.903219,30.3299598 L236.658445,80.3149152 L234.13013,79.9885495 L233.804784,75.5856714 L232.580913,73.3837225 L232.744096,23.0734212 L229.890435,21.6863668 L224.345277,22.665464 L222.306511,23.3171756 L222.469694,41.0112991 L221.002068,40.7675447 L220.757293,23.8067243 L219.818992,23.6435414 C219.818992,23.6435414 219.655809,22.4604655 219.126484,21.4415924 C218.59614,20.4227193 217.087718,19.606805 217.087718,19.606805 C217.087718,19.606805 216.761353,17.2834887 216.679761,16.8347358 C216.59817,16.3859829 216.231008,16.2635957 216.231008,16.2635957 L215.904642,10.7194574 L215.620092,16.2635957 C215.620092,16.2635957 215.293726,16.7123486 215.171339,16.957123 C215.048952,17.2018973 214.925545,19.6476007 214.925545,19.6476007 C214.925545,19.6476007 213.825081,20.3003322 213.050982,21.0754509 C212.275863,21.8495496 212.275863,23.56195 212.275863,23.56195 L211.215174,23.9280915 L210.888809,35.3039779 L210.725626,40.5625462 C210.725626,40.5625462 208.482881,41.7456221 208.278903,41.8272135 C208.075944,41.907785 208.156515,48.8797735 208.156515,48.8797735 C208.156515,48.8797735 204.039207,47.1265775 202.571581,47.2081689 C201.103955,47.2897603 199.104965,47.6977175 199.104965,47.6977175 L199.227352,37.9934358 C199.227352,37.9934358 191.889222,40.2769762 191.685244,40.2769762 C191.481265,40.2769762 182.633693,34.8950009 182.633693,34.8950009 Z" id="Fill-1" fill="#231F20"></path>
    </g>
</svg>