<?xml version="1.0" encoding="UTF-8"?>
<svg width="150px" height="150px" viewBox="0 0 150 150" version="1.1" xmlns="http://www.w3.org/2000/svg" xmlns:xlink="http://www.w3.org/1999/xlink">
    <!-- Generator: Sketch 50.2 (55047) - http://www.bohemiancoding.com/sketch -->
    <title>icon/heavy rain 9dn</title>
    <desc>Created with Sketch.</desc>
    <defs>
        <path d="M38.3469201,98.8802789 C27.1289821,98.8802789 18,89.7533368 18,78.5353988 C18,67.3174608 27.1289821,58.1894988 38.3469201,58.1894988 C39.1935184,58.1894988 40.0503167,58.2466187 40.911195,58.3598384 C43.1664106,40.5731134 58.3388808,27 76.561145,27 C90.3668179,27 102.899533,34.8988645 108.894062,47.2469602 C122.319275,48.1516985 133.003754,59.4175764 133.003754,73.0294496 C133.003754,87.2839216 121.407397,98.8802789 107.150885,98.8802789 C105.861607,98.8802789 104.81611,97.8347809 104.81611,96.5455035 C104.81611,95.256226 105.861607,94.210728 107.150885,94.210728 C118.830882,94.210728 128.334203,84.7084267 128.334203,73.0294496 C128.334203,61.4636923 118.920642,51.966491 107.351825,51.8573512 C106.429746,51.8502112 105.601508,51.3014523 105.232269,50.4558739 C100.257739,39.0441364 89.0041006,31.6685308 76.561145,31.6685308 C59.9219177,31.6685308 46.2039646,44.6735053 45.3339063,61.2760127 C45.2971864,61.9787913 44.9452871,62.6275101 44.3771482,63.0416292 C43.8079893,63.4567684 43.0848108,63.5914082 42.4014121,63.4088285 C41.0346148,63.0436692 39.6698575,62.8590496 38.3469201,62.8590496 C29.702437,62.8590496 22.6705708,69.8909158 22.6705708,78.5353988 C22.6705708,87.1788618 29.702437,94.210728 38.3469201,94.210728 C39.6361975,94.210728 40.6816955,95.256226 40.6816955,96.5455035 C40.6816955,97.8347809 39.6361975,98.8802789 38.3469201,98.8802789 Z M107.252579,62.3993365 C105.963301,62.3860765 104.928003,61.3313986 104.939223,60.0421211 C104.951463,58.7528437 106.013281,57.7185657 107.296439,57.7297857 C115.657362,57.8093455 122.460749,64.672912 122.460749,73.0297556 C122.460749,74.3200531 121.415251,75.364531 120.125973,75.364531 C118.836696,75.364531 117.791198,74.3200531 117.791198,73.0297556 C117.791198,67.222907 113.063507,62.4544164 107.252579,62.3993365 Z M95.5703377,54.6696897 C92.2696242,47.1023245 84.8083388,42.2114341 76.560635,42.2114341 C75.2723776,42.2114341 74.2278996,41.1669562 74.2278996,39.8776787 C74.2278996,38.5873813 75.2723776,37.5429033 76.560635,37.5429033 C86.6657552,37.5429033 95.8069772,43.5333515 99.8492293,52.8041133 C100.365348,53.985271 99.8237294,55.3612483 98.6425717,55.8773673 C98.3396323,56.008947 98.0224129,56.0721869 97.7102935,56.0721869 C96.8096353,56.0721869 95.952837,55.547908 95.5703377,54.6696897 Z M49.5309941,94.8948407 C50.4418523,93.9829625 51.9218694,93.9829625 52.8317076,94.8948407 C53.7446058,95.8067189 53.7446058,97.284696 52.8317076,98.1955542 L41.6219296,109.407372 C41.1659905,109.862291 40.5682717,110.089751 39.9705529,110.089751 C39.374874,110.089751 38.7751152,109.862291 38.3212161,109.407372 C37.4083179,108.495494 37.4083179,107.017517 38.3212161,106.105639 L49.5309941,94.8948407 Z M59.1513092,106.790159 C58.5535904,106.790159 57.9558716,106.5627 57.5019724,106.106761 C56.5890742,105.195902 56.5890742,103.716905 57.5019724,102.806047 L65.4110369,94.8949427 C66.3208751,93.9830645 67.7998722,93.9830645 68.7117504,94.8949427 C69.6246486,95.8058009 69.6246486,97.284798 68.7117504,98.1956562 L60.802686,106.106761 C60.3467469,106.5627 59.749028,106.790159 59.1513092,106.790159 Z M57.5017684,121.98456 C56.5888702,121.073701 56.5888702,119.594704 57.5017684,118.683846 L81.2901617,94.8944327 C82.20102,93.9835745 83.681037,93.9835745 84.5918953,94.8944327 C85.5017335,95.8063109 85.5017335,97.284288 84.5918953,98.1961662 L60.802482,121.98456 C60.3465429,122.440499 59.748824,122.669998 59.1511052,122.669998 C58.5533864,122.669998 57.9556676,122.440499 57.5017684,121.98456 Z M83.3164898,114.382412 C82.7187709,114.382412 82.1210521,114.153933 81.665113,113.697994 C80.7542548,112.787136 80.7542548,111.308138 81.667153,110.39626 L97.1701026,94.8943307 C98.0830008,93.9834725 99.5609779,93.9834725 100.470816,94.8953507 C101.383714,95.8072289 101.383714,97.284186 100.470816,98.1970842 L84.9678665,113.699014 C84.5119274,114.153933 83.9142086,114.382412 83.3164898,114.382412 Z" id="path-1"></path>
    </defs>
    <g id="icon/heavy-rain-9dn" stroke="none" stroke-width="1" fill="none" fill-rule="evenodd">
        <mask id="mask-2" fill="white">
            <use xlink:href="#path-1"></use>
        </mask>
        <use id="Mask" fill="#FFFFFF" xlink:href="#path-1"></use>
    </g>
</svg>