<?xml version="1.0" encoding="UTF-8"?>
<svg width="150px" height="150px" viewBox="0 0 150 150" version="1.1" xmlns="http://www.w3.org/2000/svg" xmlns:xlink="http://www.w3.org/1999/xlink">
    <!-- Generator: Sketch 50.2 (55047) - http://www.bohemiancoding.com/sketch -->
    <title>icon/snow 13dn</title>
    <desc>Created with Sketch.</desc>
    <defs>
        <path d="M40.6779573,97.5434238 C40.6779573,98.8326628 39.6345306,99.8781294 38.3452917,99.8781294 C27.1256492,99.8781294 18,90.7514603 18,79.5338578 C18,68.3152353 27.1256492,59.1885661 38.3452917,59.1885661 C39.1918647,59.1885661 40.0486374,59.2456843 40.9094899,59.3589007 C43.1646381,41.5716875 58.3356346,28 76.5583739,28 C90.361594,28 102.893935,35.8986283 108.888284,48.2463548 C122.313096,49.151066 132.999295,60.416607 132.999295,74.0280732 C132.999295,88.282119 121.401245,99.8781294 107.147199,99.8781294 C105.85796,99.8781294 104.812494,98.8326628 104.812494,97.5434238 C104.812494,96.2541849 105.85796,95.2087182 107.147199,95.2087182 C118.826847,95.2087182 128.329884,85.707721 128.329884,74.0280732 C128.329884,62.4626618 118.916604,52.9657444 107.346093,52.8566079 C106.426082,52.8484482 105.596849,52.3007256 105.2266,51.4551726 C100.252219,40.0427562 88.9989175,32.6683912 76.5583739,32.6683912 C59.9176042,32.6683912 46.2021013,45.6729768 45.331049,62.2749878 C45.2953502,62.9777454 44.9434614,63.6274647 44.3732996,64.0405515 C43.8031377,64.4566982 43.0789608,64.589294 42.3976225,64.4077398 C41.032906,64.0425914 39.6681895,63.8579773 38.3452917,63.8579773 C29.6990272,63.8579773 22.6673713,70.8896332 22.6673713,79.5338578 C22.6673713,88.1770623 29.6990272,95.2087182 38.3452917,95.2087182 C39.6345306,95.2087182 40.6779573,96.2541849 40.6779573,97.5434238 Z M107.248686,63.39838 C105.959447,63.3861403 104.92418,62.331494 104.9354,61.0412351 C104.947639,59.7530161 106.005346,58.6871501 107.292545,58.7289688 C115.651178,58.8075063 122.454361,65.6708675 122.454361,74.0284812 C122.454361,75.3177201 121.408895,76.3631868 120.119656,76.3631868 C118.830417,76.3631868 117.78699,75.3177201 117.78699,74.0284812 C117.78699,68.2218062 113.057401,63.4524382 107.248686,63.39838 Z M97.706482,57.0703996 C96.8058507,57.0703996 95.9470381,56.5471563 95.5625103,55.6689643 C92.2659754,48.1008054 84.8059331,43.2110813 76.5584759,43.2110813 C75.269237,43.2110813 74.2237703,42.1666345 74.2237703,40.8773956 C74.2237703,39.5871368 75.269237,38.54269 76.5584759,38.54269 C86.6622739,38.54269 95.8042426,44.5329591 99.8463738,53.8024238 C100.360437,54.9845661 99.8178147,56.3605022 98.6366923,56.8766058 C98.333762,57.0071616 98.0175721,57.0703996 97.706482,57.0703996 Z M92.2062053,105.701124 C92.0552501,105.701124 91.9032749,105.680725 91.7523197,105.638906 L89.6063081,105.065684 L90.1825897,107.209656 C90.4335018,108.143946 89.8796594,109.103735 88.9433292,109.354647 C88.793394,109.394426 88.6403989,109.414826 88.4904637,109.414826 C87.7183483,109.414826 87.0104908,108.898722 86.8013975,108.115387 L86.2261358,105.972435 L84.6564059,107.542165 C84.3136968,107.884874 83.8649111,108.056229 83.4171453,108.056229 C82.9703996,108.056229 82.5226338,107.884874 82.1799248,107.542165 C81.4965465,106.858787 81.4965465,105.751102 82.1799248,105.065684 L83.7516947,103.495954 L81.6056831,102.919673 C80.6713928,102.6708 80.1155106,101.711011 80.3674425,100.776721 C80.6183545,99.8424306 81.5781439,99.2885882 82.5124342,99.5384803 L84.6564059,100.112722 L84.0801242,97.9687503 C83.8312521,97.03548 84.3850945,96.0746707 85.3193847,95.8237587 C86.251635,95.5728466 87.2124444,96.1287289 87.4633564,97.0630192 L88.0365781,99.2080108 L89.6063081,97.6382808 C90.2896863,96.9538826 91.399411,96.9538826 92.0827892,97.6382808 C92.7661674,98.321659 92.7661674,99.4303637 92.0827892,100.112722 L90.5130592,101.683472 L92.6560109,102.258734 C93.5923411,102.507606 94.1461834,103.468415 93.8952714,104.402705 C93.6861781,105.18502 92.9793406,105.701124 92.2062053,105.701124 Z M60.3461945,104.340487 C60.1952394,104.340487 60.0412243,104.320088 59.892309,104.280309 L57.7462974,103.705047 L58.3205391,105.850039 C58.5714511,106.783309 58.0176088,107.743099 57.0833185,107.994011 C56.9313434,108.035829 56.7803882,108.054189 56.628413,108.054189 C55.8562976,108.054189 55.1504801,107.538085 54.9393468,106.75679 L54.3661251,104.611799 L52.7963951,106.183569 C52.4536861,106.524238 52.0049004,106.695592 51.5571346,106.695592 C51.1083489,106.695592 50.6605832,106.524238 50.3199141,106.183569 C49.6344959,105.49815 49.6344959,104.390466 50.3199141,103.707087 L51.889644,102.135318 L49.7436324,101.561076 C48.8113821,101.310164 48.2554998,100.350374 48.5074318,99.4160842 C48.7583438,98.4838339 49.7201732,97.9269316 50.6524235,98.1788636 L52.7963951,98.7520853 L52.2201135,96.6091336 C51.9692015,95.6758634 52.5230438,94.714034 53.459374,94.4651619 C54.3936642,94.21119 55.3524337,94.7680923 55.6013058,95.7023825 L56.1765674,97.8483941 L57.7462974,96.2786642 C58.4296756,95.594266 59.5373603,95.594266 60.2227785,96.2786642 C60.9061567,96.9620424 60.9061567,98.0697271 60.2227785,98.7531053 L58.6530485,100.323855 L60.7960002,100.898097 C61.7302904,101.149009 62.2841328,102.108798 62.0352607,103.042069 C61.8241275,103.824384 61.1193299,104.340487 60.3461945,104.340487 Z M74.7233504,118.0463 C74.5744351,118.0463 74.42042,118.025901 74.2694649,117.986122 L72.1275331,117.410861 L72.7017748,119.554832 C72.9526868,120.489123 72.3988445,121.448912 71.4645542,121.699824 C71.3105391,121.739603 71.159584,121.760002 71.0096487,121.760002 C70.2375333,121.760002 69.5296759,121.243899 69.3185426,120.460564 L68.7453209,118.317612 L67.1755909,119.887342 C66.8328818,120.230051 66.3840961,120.401405 65.9383703,120.401405 C65.4875447,120.401405 65.0418189,120.230051 64.6991098,119.887342 C64.0157316,119.203964 64.0157316,118.096279 64.6991098,117.412901 L66.2708797,115.841131 L64.1248681,115.264849 C63.1905779,115.015977 62.6367356,114.056188 62.8876476,113.121897 C63.1375396,112.187607 64.0993689,111.629685 65.0316192,111.884677 L67.173551,112.457899 L66.5993093,110.314947 C66.3483973,109.380657 66.9042796,108.419847 67.8365299,108.170975 C68.7687801,107.918023 69.7306095,108.473906 69.9825415,109.408196 L70.5557632,111.554207 L72.1275331,109.984477 C72.8088714,109.299059 73.918596,109.299059 74.6019743,109.984477 C75.2873924,110.667856 75.2873924,111.77554 74.6019743,112.457899 L73.0322443,114.029668 L75.175196,114.60391 C76.1094862,114.854822 76.6633286,115.814612 76.4124166,116.747882 C76.2033232,117.530197 75.4964858,118.0463 74.7233504,118.0463 Z" id="path-1"></path>
    </defs>
    <g id="icon/snow-13dn" stroke="none" stroke-width="1" fill="none" fill-rule="evenodd">
        <mask id="mask-2" fill="white">
            <use xlink:href="#path-1"></use>
        </mask>
        <use id="Mask" fill="#FFFFFF" xlink:href="#path-1"></use>
    </g>
</svg>