<?xml version="1.0" encoding="UTF-8"?>
<svg width="150px" height="150px" viewBox="0 0 150 150" version="1.1" xmlns="http://www.w3.org/2000/svg" xmlns:xlink="http://www.w3.org/1999/xlink">
    <!-- Generator: Sketch 50.2 (55047) - http://www.bohemiancoding.com/sketch -->
    <title>icon/clear-day 1d</title>
    <desc>Created with Sketch.</desc>
    <defs>
        <path d="M88.5708545,57.4991803 C88.5708545,40.3649285 74.6323051,26.4274036 57.4990779,26.4274036 C40.3668752,26.4274036 26.4293504,40.3649285 26.4293504,57.4991803 C26.4293504,74.631383 40.3668752,88.570957 57.4990779,88.570957 C74.6323051,88.570957 88.5708545,74.631383 88.5708545,57.4991803 M93.2593875,57.4991803 C93.2593875,77.2164286 77.2183753,93.2594899 57.4990779,93.2594899 C37.7818296,93.2594899 21.7377437,77.2164286 21.7377437,57.4991803 C21.7377437,37.7798829 37.7818296,21.7388707 57.4990779,21.7388707 C77.2183753,21.7388707 93.2593875,37.7798829 93.2593875,57.4991803 Z M55.7398534,2.34324188 C55.7398534,1.04815761 56.7900602,0 58.0851445,0 C59.3802288,0 60.4304355,1.04815761 60.4304355,2.34324188 L60.4304355,14.1158038 C60.4304355,15.4108881 59.3802288,16.4610949 58.0851445,16.4610949 C56.7900602,16.4610949 55.7398534,15.4108881 55.7398534,14.1158038 L55.7398534,2.34324188 Z M29.2565071,7.40820992 C30.3794599,6.76169238 31.8138887,7.14591437 32.4604062,8.26681801 L38.3477118,18.4625329 C38.9942293,19.5854857 38.6100073,21.0199145 37.4891037,21.666432 C37.119226,21.8805718 36.7165613,21.9809818 36.3190196,21.9809818 C35.5085674,21.9809818 34.7196315,21.5608991 34.2852045,20.807824 L28.3999481,10.6121091 C27.7513814,9.48915625 28.1356034,8.05472747 29.2565071,7.40820992 Z M21.3960422,33.2691167 C22.5169459,33.9156342 22.9011679,35.3521122 22.2526011,36.4730158 C21.8181741,37.2250663 21.0323121,37.6441245 20.2218598,37.6441245 C19.8232935,37.6441245 19.4185797,37.5437144 19.0507512,37.3316239 L8.85503627,31.4443183 C7.73208345,30.7957516 7.34786145,29.3613228 7.99642818,28.2404192 C8.64499491,27.1195155 10.0773745,26.7352935 11.2003273,27.3818111 L21.3960422,33.2691167 Z M16.4631441,56.9128063 C16.4631441,58.2058414 15.4129373,59.2580974 14.117853,59.2580974 L2.34529106,59.2580974 C1.05020679,59.2580974 0,58.2058414 0,56.9128063 C0,55.6156729 1.05020679,54.5675153 2.34529106,54.5675153 L14.117853,54.5675153 C15.4129373,54.5675153 16.4631441,55.6156729 16.4631441,56.9128063 Z M18.4642747,76.650239 C19.5851783,76.0057707 21.0196071,76.3879435 21.6661247,77.5108963 C22.3146914,78.6317999 21.9304694,80.0662287 20.8095658,80.7147955 L10.6138509,86.602101 C10.2439732,86.8141916 9.84130852,86.9146016 9.44274224,86.9146016 C8.63228997,86.9146016 7.84437873,86.4934943 7.40995173,85.7434929 C6.76343418,84.6205401 7.145607,83.1861113 8.26855982,82.5395938 L18.4642747,76.650239 Z M33.2708585,93.6039578 C33.917376,92.4830541 35.3497556,92.0988321 36.4727084,92.7453497 C37.5956613,93.3939164 37.9798832,94.8283452 37.3313165,95.9492488 L31.4460601,106.142915 C31.0116331,106.898039 30.2226973,107.316072 29.412245,107.316072 C29.0147033,107.316072 28.6099895,107.215662 28.242161,107.003572 C27.1192082,106.355005 26.7349862,104.920576 27.3835529,103.799673 L33.2708585,93.6039578 Z M54.5691546,100.882147 C54.5691546,99.5870627 55.6173122,98.5368559 56.9144457,98.5368559 C58.20953,98.5368559 59.2576876,99.5870627 59.2576876,100.882147 L59.2576876,112.654709 C59.2576876,113.949793 58.2074808,115 56.9123965,115 C55.6173122,115 54.5671054,113.949793 54.5671054,112.654709 L54.5691546,100.882147 Z M77.510384,93.3318261 C78.6333368,92.6832594 80.0657164,93.0695306 80.7142832,94.1904342 L86.5995396,104.386149 C87.2481063,105.507053 86.8638843,106.941482 85.7409315,107.590048 C85.3731029,107.802139 84.9683891,107.902549 84.5728966,107.902549 C83.7624443,107.902549 82.9735085,107.484515 82.5390815,106.729391 L76.6517759,96.5357253 C76.0052584,95.4148217 76.3894804,93.9803929 77.510384,93.3318261 Z M93.6037529,81.7310883 C92.4828492,81.0825215 92.0986272,79.6460436 92.747194,78.5271891 C93.3937115,77.4042363 94.8281403,77.0200143 95.9490439,77.668581 L106.144759,83.5538374 C107.267712,84.200355 107.649884,85.6378575 107.003367,86.7556874 C106.56894,87.5108117 105.781029,87.9288452 104.970576,87.9288452 C104.57201,87.9288452 104.17037,87.8284352 103.799468,87.6163446 L93.6037529,81.7310883 Z M115.000102,58.0854519 C115.000102,59.3825853 113.949896,60.4307429 112.654811,60.4307429 L100.882249,60.4307429 C99.5871652,60.4307429 98.5369584,59.378487 98.5369584,58.0854519 C98.5369584,56.7883184 99.5871652,55.7401608 100.882249,55.7401608 L112.654811,55.7401608 C113.951945,55.7401608 115.000102,56.7903676 115.000102,58.0854519 Z M95.3647191,38.6582656 C94.5542668,38.6582656 93.765331,38.2402321 93.3339778,37.4851078 C92.6854111,36.3652287 93.0696331,34.9297754 94.1905367,34.2832578 L104.386252,28.3980014 C105.506131,27.7504593 106.941584,28.1357059 107.590151,29.2566095 C108.236668,30.3775131 107.853471,31.8119419 106.731543,32.4605087 L96.5358278,38.345765 C96.1669746,38.5578556 95.7632854,38.6582656 95.3647191,38.6582656 Z M78.5269842,22.2507569 C77.4040314,21.6021901 77.0198094,20.1698105 77.6683761,19.0468577 L83.5536325,8.853192 C84.20015,7.73023918 85.636628,7.34806637 86.7575316,7.99458392 C87.8784353,8.64110146 88.2626573,10.0775794 87.6161397,11.1964339 L81.7288342,21.3921488 C81.2944072,22.1462485 80.5064959,22.5653066 79.6960436,22.5653066 C79.2995265,22.5653066 78.8948127,22.4648966 78.5269842,22.2507569 Z" id="path-1"></path>
    </defs>
    <g id="icon/clear-day-1d" stroke="none" stroke-width="1" fill="none" fill-rule="evenodd">
        <g id="color/white" transform="translate(17.000000, 18.000000)">
            <mask id="mask-2" fill="white">
                <use xlink:href="#path-1"></use>
            </mask>
            <use id="Mask" fill="#FFFFFF" xlink:href="#path-1"></use>
            <g mask="url(#mask-2)" fill="#FFFFFF" id="color">
                <g transform="translate(-17.000000, -17.000000)">
                    <rect x="0" y="0" width="150" height="149"></rect>
                </g>
            </g>
        </g>
    </g>
</svg>