<?xml version="1.0" encoding="UTF-8"?>
<svg width="150px" height="150px" viewBox="0 0 150 150" version="1.1" xmlns="http://www.w3.org/2000/svg" xmlns:xlink="http://www.w3.org/1999/xlink">
    <!-- Generator: Sketch 50.2 (55047) - http://www.bohemiancoding.com/sketch -->
    <title>color icon/clouds 3-4dn copy</title>
    <desc>Created with Sketch.</desc>
    <defs>
        <path d="M17,90.5359282 C17,79.317875 26.1280558,70.1908392 37.3461091,70.1908392 C38.1927161,70.1908392 39.0495232,70.2469396 39.9104104,70.3611806 C42.1656491,52.5722328 57.3382752,39 75.5607266,39 C89.3645013,39 101.897345,46.8989456 107.893975,59.2461482 C121.317287,60.1508957 132.003916,71.4179094 132.003916,85.0309425 C132.003916,99.2835209 120.407439,110.879997 106.150781,110.879997 L37.3461091,110.879997 C26.1280558,110.879997 17,101.753981 17,90.5359282 Z M21.6695988,90.5359282 C21.6695988,99.1805 28.7025572,106.212438 37.3461091,106.212438 L106.150781,106.212438 C117.830898,106.212438 127.334317,96.7100395 127.334317,85.0309425 C127.334317,73.4650664 117.920659,63.9667474 106.350702,63.8586266 C105.429635,63.8504665 104.601388,63.3006819 104.232145,62.4571349 C99.2555235,51.0442601 88.00177,43.6695988 75.5607266,43.6695988 C58.9203083,43.6695988 45.2032343,56.6747069 44.3331671,73.2753448 C44.2974668,73.9791506 43.9445439,74.627876 43.3743591,75.0430195 C42.8072344,75.4561229 42.0820084,75.590764 41.4006427,75.4092025 C40.0338314,75.0440395 38.66906,74.859418 37.3461091,74.859418 C28.7025572,74.859418 21.6695988,81.8913564 21.6695988,90.5359282 Z M106.25064,74.3990881 C104.961349,74.386848 103.92808,73.3311393 103.9393,72.0418485 C103.95154,70.7617379 104.993989,69.7305093 106.27206,69.7305093 L106.29654,69.7305093 C114.657549,69.80905 121.458966,76.673707 121.458966,85.0306365 C121.458966,86.3209472 120.415497,87.3644159 119.124167,87.3644159 C117.836916,87.3644159 116.791407,86.3209472 116.791407,85.0306365 C116.791407,79.2237282 112.063668,74.4551886 106.25064,74.3990881 Z M75.5607266,54.2121004 C74.2714359,54.2121004 73.2259272,53.1676117 73.2259272,51.877301 C73.2259272,50.5880103 74.2714359,49.5435216 75.5607266,49.5435216 C85.6649305,49.5435216 94.8052265,55.5340314 98.8495601,64.8048884 C99.3636444,65.9860582 98.8240599,67.3630697 97.6418701,67.8771539 C97.3379075,68.009755 97.0206849,68.0719756 96.7095823,68.0719756 C95.8099348,68.0719756 94.9510877,67.5487112 94.5685845,66.6704839 C91.2688571,59.103041 83.8085151,54.2121004 75.5607266,54.2121004 Z" id="path-1"></path>
    </defs>
    <g id="color-icon/clouds-3-4dn-copy" stroke="none" stroke-width="1" fill="none" fill-rule="evenodd">
        <mask id="mask-2" fill="white">
            <use xlink:href="#path-1"></use>
        </mask>
        <use id="Mask" fill="#C1CDDA" xlink:href="#path-1"></use>
    </g>
</svg>