<?xml version="1.0" encoding="UTF-8"?>
<svg width="150px" height="150px" viewBox="0 0 150 150" version="1.1" xmlns="http://www.w3.org/2000/svg" xmlns:xlink="http://www.w3.org/1999/xlink">
    <!-- Generator: Sketch 50.2 (55047) - http://www.bohemiancoding.com/sketch -->
    <title>color icon/mist 50dn copy</title>
    <desc>Created with Sketch.</desc>
    <defs>
        <path d="M104.621308,50.0854215 C106.574422,54.701073 111.073631,57.6835844 116.086559,57.6835844 C122.947901,57.6835844 128.528367,52.1011608 128.528367,45.239819 C128.528367,44.0019986 129.529387,43 130.768186,43 C132.00405,43 133.008005,44.0019986 133.008005,45.239819 C133.008005,54.5699521 125.416692,62.162244 116.086559,62.162244 C110.677332,62.162244 105.70648,59.6073433 102.557621,55.4163669 C99.407784,59.6073433 94.4369318,62.162244 89.0296622,62.162244 C83.6214141,62.162244 78.6505619,59.6083218 75.5046387,55.4163669 C72.3548014,59.6073433 67.3839492,62.162244 61.9776581,62.162244 C56.56941,62.162244 51.5975793,59.6063648 48.4487205,55.4163669 C45.2988832,59.6063648 40.329988,62.162244 34.9217399,62.162244 C25.5906284,62.162244 18.0002936,54.5699521 18.0002936,45.239819 C18.0002936,44.0019986 19.0032706,43 20.2401126,43 C21.4759761,43 22.4799316,44.0019986 22.4799316,45.239819 C22.4799316,52.1011608 28.0603982,57.6835844 34.9217399,57.6835844 C39.9327113,57.6835844 44.4328982,54.701073 46.3860125,50.0844429 C46.7382777,49.2546629 47.5504445,48.7184371 48.4487205,48.7184371 C49.3489536,48.7184371 50.1611204,49.2546629 50.51045,50.0844429 C52.4655214,54.701073 56.9647298,57.6835844 61.9776581,57.6835844 C66.9886294,57.6835844 71.4858808,54.701073 73.4429092,50.0844429 C73.7922388,49.2566199 74.6024486,48.7184371 75.5046387,48.7184371 C76.4029147,48.7184371 77.2170386,49.2566199 77.5673466,50.0854215 C79.520461,54.701073 84.0186909,57.6835844 89.0296622,57.6835844 C94.0406335,57.6835844 98.5417989,54.701073 100.49687,50.0844429 C100.847178,49.2566199 101.661302,48.7184371 102.559578,48.7184371 C103.459811,48.7184371 104.271978,49.2566199 104.621308,50.0854215 Z M130.767893,65.2437809 C132.004735,65.2437809 133.007712,66.2457795 133.007712,67.4826215 C133.007712,76.8147116 125.416398,84.4060249 116.086265,84.4060249 C110.678017,84.4060249 105.707165,81.8530813 102.557328,77.6601479 C99.4074905,81.8530813 94.4366382,84.4060249 89.0303472,84.4060249 C83.6211206,84.4060249 78.6502683,81.8530813 75.5043451,77.6601479 C72.3554864,81.8530813 67.3846341,84.4060249 61.9773646,84.4060249 C56.5691165,84.4060249 51.5982642,81.8511243 48.448427,77.6591693 C45.2985897,81.8511243 40.3296945,84.4060249 34.9214464,84.4060249 C25.5913133,84.4060249 18,76.8147116 18,67.4826215 C18,66.2457795 19.0029771,65.2437809 20.239819,65.2437809 C21.476661,65.2437809 22.4796381,66.2457795 22.4796381,67.4826215 C22.4796381,74.3459202 28.0601047,79.9283438 34.9214464,79.9283438 C39.9324177,79.9283438 44.4335831,76.944854 46.3866975,72.3282239 C46.7379841,71.5004009 47.5501509,70.962218 48.448427,70.962218 C49.34866,70.962218 50.1608268,71.5004009 50.5101564,72.3282239 C52.4662063,76.944854 56.9644362,79.9283438 61.9773646,79.9283438 C66.9883359,79.9283438 71.4855872,76.944854 73.4426157,72.3292024 C73.7919452,71.5013794 74.6031335,70.9631965 75.5043451,70.9631965 C76.4026212,70.9631965 77.216745,71.5023579 77.5670531,72.3292024 C79.5201675,76.944854 84.0193759,79.9283438 89.0303472,79.9283438 C94.0413185,79.9283438 98.5415054,76.944854 100.496577,72.3292024 C100.846885,71.5013794 101.661009,70.9631965 102.559285,70.9631965 C103.459518,70.9631965 104.271685,71.5023579 104.621014,72.3292024 C106.574129,76.944854 111.073337,79.9283438 116.086265,79.9283438 C122.947607,79.9283438 128.528074,74.3459202 128.528074,67.4826215 C128.528074,66.2457795 129.529094,65.2437809 130.767893,65.2437809 Z M130.767893,87.4867791 C132.004735,87.4867791 133.007712,88.4897561 133.007712,89.7265981 C133.007712,99.0586882 125.416398,106.650002 116.086265,106.650002 C110.678017,106.650002 105.707165,104.097058 102.557328,99.903146 C99.4074905,104.097058 94.4366382,106.650002 89.0303472,106.650002 C83.6211206,106.650002 78.6502683,104.097058 75.5043451,99.903146 C72.3554864,104.097058 67.3846341,106.650002 61.9773646,106.650002 C56.5691165,106.650002 51.5982642,104.095101 48.448427,99.903146 C45.2985897,104.095101 40.3296945,106.650002 34.9214464,106.650002 C25.5913133,106.650002 18,99.0586882 18,89.7265981 C18,88.4897561 19.0029771,87.4867791 20.239819,87.4867791 C21.476661,87.4867791 22.4796381,88.4897561 22.4796381,89.7265981 C22.4796381,96.5898968 28.0601047,102.17232 34.9214464,102.17232 C39.9324177,102.17232 44.4335831,99.1888306 46.3866975,94.571222 C46.7379841,93.7424205 47.5501509,93.2052162 48.448427,93.2052162 C49.34866,93.2052162 50.1608268,93.7424205 50.5101564,94.571222 C52.4662063,99.1888306 56.9644362,102.17232 61.9773646,102.17232 C66.9883359,102.17232 71.4855872,99.1888306 73.4426157,94.573179 C73.7919452,93.7443775 74.6050906,93.2071732 75.5043451,93.2071732 C76.4026212,93.2071732 77.214788,93.745356 77.5670531,94.573179 C79.5201675,99.1888306 84.0193759,102.17232 89.0303472,102.17232 C94.0413185,102.17232 98.5415054,99.1888306 100.496577,94.573179 C100.846885,93.7443775 101.661009,93.2071732 102.559285,93.2071732 C103.459518,93.2071732 104.271685,93.745356 104.621014,94.573179 C106.574129,99.1888306 111.073337,102.17232 116.086265,102.17232 C122.947607,102.17232 128.528074,96.5898968 128.528074,89.7265981 C128.528074,88.4897561 129.529094,87.4867791 130.767893,87.4867791 Z" id="path-1"></path>
    </defs>
    <g id="color-icon/mist-50dn-copy" stroke="none" stroke-width="1" fill="none" fill-rule="evenodd">
        <mask id="mask-2" fill="white">
            <use xlink:href="#path-1"></use>
        </mask>
        <use id="Mask" fill="#C1CDDA" xlink:href="#path-1"></use>
    </g>
</svg>