<?xml version="1.0" encoding="UTF-8"?>
<svg width="150px" height="150px" viewBox="0 0 150 150" version="1.1" xmlns="http://www.w3.org/2000/svg" xmlns:xlink="http://www.w3.org/1999/xlink">
    <!-- Generator: Sketch 50.2 (55047) - http://www.bohemiancoding.com/sketch -->
    <title>color icon/clear-night 1n copy</title>
    <desc>Created with Sketch.</desc>
    <defs>
        <path d="M125.178817,104.313017 C125.820856,105.13423 125.869916,106.273263 125.301466,107.145668 C114.77608,123.335288 96.9888284,133 77.7255271,133 C46.4469256,133 21,107.554141 21,76.2755394 C21,52.0753639 36.3748063,30.5222659 59.2557091,22.6439574 C60.2379647,22.3037408 61.3322039,22.6268933 61.9753093,23.4502389 C62.6173483,24.270385 62.6674742,25.408351 62.0968914,26.2818226 C56.6310283,34.6944525 53.7418531,44.4466188 53.7418531,54.4910087 C53.7418531,83.0766729 76.9981674,106.334054 105.583831,106.334054 C111.335519,106.334054 117.013618,105.382727 122.462417,103.507802 C123.441473,103.166519 124.536778,103.491805 125.178817,104.313017 Z M112.424532,23.9977851 C111.336692,24.7870024 110.789573,26.476354 111.203379,27.7529663 L111.462541,28.5475162 C111.876346,29.8241285 111.324961,30.2230032 110.241387,29.4337859 L109.566286,28.9431913 C108.479512,28.1529075 106.702707,28.153974 105.617,28.9431913 L104.941899,29.4337859 C103.857259,30.2219367 103.30694,29.8241285 103.721812,28.5475162 L103.977774,27.7529663 C104.39478,26.476354 103.842328,24.7859359 102.755554,23.9977851 L102.084719,23.5071905 C100.996879,22.7190397 101.206982,22.0727347 102.548651,22.0727347 L103.381595,22.0727347 C104.725398,22.0727347 106.165186,21.0275551 106.580058,19.7509428 L106.838154,18.9585259 C107.25196,17.6808471 107.931326,17.6808471 108.346199,18.9563929 L108.602161,19.7520093 C109.019166,21.0275551 110.457888,22.0727347 111.799558,22.0727347 L112.634635,22.0727347 C113.976304,22.0727347 114.186407,22.7179732 113.099633,23.506124 L112.424532,23.9977851 Z M80.0355875,65.9374326 L82.5461517,63.4279349 C83.4932125,62.4798076 83.7726381,60.7232658 83.1625944,59.5277083 L81.5500315,56.36444 C80.9399879,55.1678159 81.4231168,54.688953 82.6186744,55.2968636 L85.7787432,56.90836 C86.9764337,57.5173372 88.731909,57.2400446 89.6821693,56.2908508 L92.191667,53.7813531 C93.1397943,52.8310928 93.7455719,53.1393141 93.5354695,54.4660524 L92.9776848,57.9716704 C92.7686489,59.2973421 93.5770633,60.8821758 94.7726209,61.4911529 L97.9326897,63.1026494 C99.1303803,63.712693 99.0226628,64.3835277 97.6980575,64.5925637 L94.1935061,65.1482153 C92.8667678,65.3572512 91.6093526,66.6135999 91.4003167,67.9403381 L90.8446651,71.4427566 C90.6345626,72.7694948 89.9637279,72.8761458 89.3547508,71.6795218 L87.7432543,68.5205195 C87.1321442,67.3249619 85.5515766,66.517614 84.2227053,66.7266499 L80.7192203,67.281235 C79.3935486,67.4913375 79.0853272,66.8866264 80.0355875,65.9374326 Z M127.641069,85.2126788 C128.838759,85.821656 128.729975,86.4924907 127.40537,86.7025931 L126.580958,86.8327073 C125.256353,87.0428098 124.000004,88.3002249 123.789902,89.6258967 L123.658721,90.4492423 C123.447552,91.7749141 122.77885,91.8815651 122.168807,90.6860075 L121.792329,89.9447831 C121.181218,88.7481591 119.596385,87.9418776 118.271779,88.1509135 L117.446301,88.2820942 C116.121696,88.4900637 115.813474,87.8853526 116.763735,86.9361588 L117.351381,86.3463788 C118.300575,85.397185 118.580001,83.6427763 117.969957,82.4461522 L117.59028,81.7017283 C116.980236,80.5061708 117.461232,80.0251748 118.65679,80.6341519 L119.400147,81.0138295 C120.597838,81.6228066 122.354379,81.3444475 123.30464,80.3952537 L123.89122,79.8065403 C124.84148,78.85628 125.445125,79.1645013 125.237155,80.4912396 L125.105975,81.3167183 C124.895872,82.6434565 125.704287,84.2261572 126.899844,84.8351343 L127.641069,85.2126788 Z" id="path-1"></path>
    </defs>
    <g id="color-icon/clear-night-1n-copy" stroke="none" stroke-width="1" fill="none" fill-rule="evenodd">
        <mask id="mask-2" fill="white">
            <use xlink:href="#path-1"></use>
        </mask>
        <use id="Mask" fill="#FFBD70" xlink:href="#path-1"></use>
    </g>
</svg>