<?xml version="1.0" encoding="UTF-8"?>
<svg width="150px" height="150px" viewBox="0 0 150 150" version="1.1" xmlns="http://www.w3.org/2000/svg" xmlns:xlink="http://www.w3.org/1999/xlink">
    <!-- Generator: Sketch 50.2 (55047) - http://www.bohemiancoding.com/sketch -->
    <title>color icon/few clouds 2n copy</title>
    <desc>Created with Sketch.</desc>
    <defs>
        <path d="M18,97.8861927 C18,87.8979424 26.1273734,79.7714772 36.1156237,79.7714772 C36.8694196,79.7714772 37.6322974,79.8214276 38.398808,79.9231446 C40.4068114,64.0843479 53.9161061,52 70.1408826,52 C82.4313892,52 93.5902937,59.033007 98.9295303,70.0266213 C110.881283,70.8321839 120.396367,80.8640272 120.396367,92.9847027 C120.396367,105.674812 110.071179,116 97.3774372,116 L36.1156237,116 C26.1273734,116 18,107.874443 18,97.8861927 Z M22.1576841,97.8861927 C22.1576841,105.583085 28.4196396,111.844132 36.1156237,111.844132 L97.3774372,111.844132 C107.777097,111.844132 116.238683,103.383454 116.238683,92.9847027 C116.238683,82.6867603 107.857017,74.2297148 97.555442,74.1334469 C96.7353484,74.1261814 95.9978998,73.6366681 95.6691358,72.8855967 C91.2380871,62.7238825 81.2180502,56.1576841 70.1408826,56.1576841 C55.3247055,56.1576841 43.1113949,67.7370796 42.3367107,82.5178374 C42.3049241,83.144487 41.9906911,83.7220945 41.483014,84.091727 C40.9780616,84.4595431 40.33234,84.5794239 39.7256705,84.4177664 C38.5086987,84.0926352 37.2935434,83.9282532 36.1156237,83.9282532 C28.4196396,83.9282532 22.1576841,90.1893004 22.1576841,97.8861927 Z M97.4663488,83.518388 C96.3183993,83.5074897 95.398405,82.5675153 95.4083951,81.4195658 C95.4192933,80.27979 96.3474613,79.361612 97.4854207,79.361612 L97.5072173,79.361612 C104.951633,79.4315425 111.00743,85.5436469 111.00743,92.9844303 C111.00743,94.1332879 110.078354,95.0623641 108.928588,95.0623641 C107.782455,95.0623641 106.851562,94.1332879 106.851562,92.9844303 C106.851562,87.8141166 102.642112,83.5683383 97.4663488,83.518388 Z M70.1408826,65.5444416 C68.9929332,65.5444416 68.0620406,64.6144572 68.0620406,63.4655995 C68.0620406,62.3176501 68.9929332,61.3876657 70.1408826,61.3876657 C79.1373918,61.3876657 87.2756634,66.7214531 90.8766284,74.9759728 C91.334355,76.0276543 90.8539237,77.253708 89.8013339,77.7114347 C89.5306939,77.8294991 89.2482475,77.8848985 88.9712502,77.8848985 C88.1702285,77.8848985 87.4055343,77.4189982 87.0649638,76.6370484 C84.126976,69.8992025 77.4844899,65.5444416 70.1408826,65.5444416 Z" id="path-1"></path>
    </defs>
    <g id="color-icon/few-clouds-2n-copy" stroke="none" stroke-width="1" fill="none" fill-rule="evenodd">
        <g id="Group" transform="translate(17.000000, 32.000000)">
            <path d="M0,58.5359282 C0,47.317875 9.12805585,38.1908392 20.3461091,38.1908392 C21.1927161,38.1908392 22.0495232,38.2469396 22.9104104,38.3611806 C25.1656491,20.5722328 40.3382752,7 58.5607266,7 C72.3645013,7 84.8973454,14.8989456 90.8939752,27.2461482 C104.317287,28.1508957 115.003916,39.4179094 115.003916,53.0309425 C115.003916,67.2835209 103.407439,78.8799973 89.1507808,78.8799973 L20.3461091,78.8799973 C9.12805585,78.8799973 0,69.7539814 0,58.5359282 Z M4.6695988,58.5359282 C4.6695988,67.1805 11.7025572,74.2124385 20.3461091,74.2124385 L89.1507808,74.2124385 C100.830898,74.2124385 110.334317,64.7100395 110.334317,53.0309425 C110.334317,41.4650664 100.920659,31.9667474 89.3507024,31.8586266 C88.4296348,31.8504665 87.6013879,31.3006819 87.2321448,30.4571349 C82.2555235,19.0442601 71.00177,11.6695988 58.5607266,11.6695988 C41.9203083,11.6695988 28.2032343,24.6747069 27.3331671,41.2753448 C27.2974668,41.9791506 26.9445439,42.627876 26.3743591,43.0430195 C25.8072344,43.4561229 25.0820084,43.590764 24.4006427,43.4092025 C23.0338314,43.0440395 21.66906,42.859418 20.3461091,42.859418 C11.7025572,42.859418 4.6695988,49.8913564 4.6695988,58.5359282 Z M89.2506396,42.3990881 C87.9613489,42.386848 86.9280803,41.3311393 86.9393004,40.0418485 C86.9515405,38.7617379 87.9939891,37.7305093 89.2720598,37.7305093 L89.29654,37.7305093 C97.6575494,37.80905 104.458966,44.673707 104.458966,53.0306365 C104.458966,54.3209472 103.415497,55.3644159 102.124167,55.3644159 C100.836916,55.3644159 99.7914072,54.3209472 99.7914072,53.0306365 C99.7914072,47.2237282 95.0636679,42.4551886 89.2506396,42.3990881 Z M58.5607266,22.2121004 C57.2714359,22.2121004 56.2259272,21.1676117 56.2259272,19.877301 C56.2259272,18.5880103 57.2714359,17.5435216 58.5607266,17.5435216 C68.6649305,17.5435216 77.8052265,23.5340314 81.8495601,32.8048884 C82.3636444,33.9860582 81.8240599,35.3630697 80.6418701,35.8771539 C80.3379075,36.009755 80.0206849,36.0719756 79.7095823,36.0719756 C78.8099348,36.0719756 77.9510877,35.5487112 77.5685845,34.6704839 C74.2688571,27.103041 66.8085151,22.2121004 58.5607266,22.2121004 Z" id="Combined-Shape" fill="#FFFFFF"></path>
            <path d="M111.550964,34.9366218 C111.789921,35.2422647 111.80818,35.6661953 111.596612,35.9908912 C107.679223,42.0164219 101.059078,45.6134811 93.8895697,45.6134811 C82.2481492,45.6134811 72.77719,36.1429188 72.77719,24.5014982 C72.77719,15.4945604 78.4994594,7.47282461 87.015384,4.54063785 C87.3809646,4.41401438 87.7882238,4.53428683 88.0275779,4.84072357 C88.266535,5.14596949 88.2851911,5.56950317 88.0728289,5.89459603 C86.0385176,9.02564912 84.9632105,12.6552573 84.9632105,16.3936267 C84.9632105,27.0327768 93.6188575,35.6888208 104.258008,35.6888208 C106.398698,35.6888208 108.512,35.3347514 110.539961,34.636933 C110.904351,34.5099126 111.312007,34.6309789 111.550964,34.9366218" id="Combined-Shape" fill="#FFBD70" transform="translate(92.260387, 25.052169) rotate(14.000000) translate(-92.260387, -25.052169) "></path>
            <path d="M100.754742,18.5424429 C100.288062,19.0085993 100.439432,19.3055776 101.09048,19.2023947 L102.811068,18.9300336 C103.463687,18.8273745 104.239916,19.2238693 104.540037,19.8110168 L105.331455,21.3624272 C105.630529,21.9500985 105.959981,21.8977214 106.063164,21.24615 L106.336049,19.5260853 C106.438708,18.8745139 107.056234,18.2575114 107.707805,18.1548522 L109.428918,17.8819674 C110.079442,17.7793082 110.132342,17.4498561 109.544147,17.150259 L107.992213,16.3588407 C107.405066,16.0597673 107.008047,15.2814433 107.110706,14.6303956 L107.384639,12.9087596 C107.487822,12.2571882 107.190319,12.1058183 106.724687,12.5724985 L105.492253,13.8049322 C105.025573,14.2710886 104.163446,14.4072691 103.57525,14.1081957 L102.023316,13.3167774 C101.436169,13.0182278 101.1989,13.2534011 101.498498,13.8410724 L102.29044,15.3945779 C102.590037,15.9817254 102.452809,16.8443766 101.9877,17.3100092 L100.754742,18.5424429 Z" id="Combined-Shape" fill="#FFBD70"></path>
        </g>
        <path d="M18,97.8861927 C18,87.8979424 26.1273734,79.7714772 36.1156237,79.7714772 C36.8694196,79.7714772 37.6322974,79.8214276 38.398808,79.9231446 C40.4068114,64.0843479 53.9161061,52 70.1408826,52 C82.4313892,52 93.5902937,59.033007 98.9295303,70.0266213 C110.881283,70.8321839 120.396367,80.8640272 120.396367,92.9847027 C120.396367,105.674812 110.071179,116 97.3774372,116 L36.1156237,116 C26.1273734,116 18,107.874443 18,97.8861927" id="Fill-1" fill="#FFFFFF"></path>
        <mask id="mask-2" fill="white">
            <use xlink:href="#path-1"></use>
        </mask>
        <use id="Mask" fill="#C1CDDA" xlink:href="#path-1"></use>
    </g>
</svg>