<?xml version="1.0" encoding="UTF-8"?>
<svg width="150px" height="150px" viewBox="0 0 150 150" version="1.1" xmlns="http://www.w3.org/2000/svg" xmlns:xlink="http://www.w3.org/1999/xlink">
    <!-- Generator: Sketch 50.2 (55047) - http://www.bohemiancoding.com/sketch -->
    <title>color icon/few clouds 2d copy</title>
    <desc>Created with Sketch.</desc>
    <defs>
        <path d="M18,97.8861927 C18,87.8979424 26.1273734,79.7714772 36.1156237,79.7714772 C36.8694196,79.7714772 37.6322974,79.8214276 38.398808,79.9231446 C40.4068114,64.0843479 53.9161061,52 70.1408826,52 C82.4313892,52 93.5902937,59.033007 98.9295303,70.0266213 C110.881283,70.8321839 120.396367,80.8640272 120.396367,92.9847027 C120.396367,105.674812 110.071179,116 97.3774372,116 L36.1156237,116 C26.1273734,116 18,107.874443 18,97.8861927 Z M22.1576841,97.8861927 C22.1576841,105.583085 28.4196396,111.844132 36.1156237,111.844132 L97.3774372,111.844132 C107.777097,111.844132 116.238683,103.383454 116.238683,92.9847027 C116.238683,82.6867603 107.857017,74.2297148 97.555442,74.1334469 C96.7353484,74.1261814 95.9978998,73.6366681 95.6691358,72.8855967 C91.2380871,62.7238825 81.2180502,56.1576841 70.1408826,56.1576841 C55.3247055,56.1576841 43.1113949,67.7370796 42.3367107,82.5178374 C42.3049241,83.144487 41.9906911,83.7220945 41.483014,84.091727 C40.9780616,84.4595431 40.33234,84.5794239 39.7256705,84.4177664 C38.5086987,84.0926352 37.2935434,83.9282532 36.1156237,83.9282532 C28.4196396,83.9282532 22.1576841,90.1893004 22.1576841,97.8861927 Z M97.4663488,83.518388 C96.3183993,83.5074897 95.398405,82.5675153 95.4083951,81.4195658 C95.4192933,80.27979 96.3474613,79.361612 97.4854207,79.361612 L97.5072173,79.361612 C104.951633,79.4315425 111.00743,85.5436469 111.00743,92.9844303 C111.00743,94.1332879 110.078354,95.0623641 108.928588,95.0623641 C107.782455,95.0623641 106.851562,94.1332879 106.851562,92.9844303 C106.851562,87.8141166 102.642112,83.5683383 97.4663488,83.518388 Z M70.1408826,65.5444416 C68.9929332,65.5444416 68.0620406,64.6144572 68.0620406,63.4655995 C68.0620406,62.3176501 68.9929332,61.3876657 70.1408826,61.3876657 C79.1373918,61.3876657 87.2756634,66.7214531 90.8766284,74.9759728 C91.334355,76.0276543 90.8539237,77.253708 89.8013339,77.7114347 C89.5306939,77.8294991 89.2482475,77.8848985 88.9712502,77.8848985 C88.1702285,77.8848985 87.4055343,77.4189982 87.0649638,76.6370484 C84.126976,69.8992025 77.4844899,65.5444416 70.1408826,65.5444416 Z" id="path-1"></path>
    </defs>
    <g id="color-icon/few-clouds-2d-copy" stroke="none" stroke-width="1" fill="none" fill-rule="evenodd">
        <path d="M18,97.726922 C18,87.7271359 26.1342018,79.5929341 36.134897,79.5929341 C36.8876766,79.5929341 37.651366,79.6429376 38.4205104,79.7447629 C40.4306501,63.8891153 53.9524992,51.7919107 70.1963556,51.7919107 C75.1185159,51.7919107 79.850663,52.9347174 84.1109592,54.9921332 C88.1930611,50.1954361 94.2143888,47.3725126 100.560284,47.3725126 C112.466567,47.3725126 122.154513,57.0604588 122.154513,68.9667409 C122.154513,73.6879782 120.596223,78.252841 117.765117,81.9894644 C119.505238,85.226053 120.505307,88.9117637 120.505307,92.8202172 C120.505307,105.523828 110.167316,115.860001 97.4618872,115.860001 L36.134897,115.860001 C26.1342018,115.860001 18,107.725799 18,97.726922 Z M22.1621075,97.726922 C22.1621075,105.432003 28.4289068,111.698802 36.134897,111.698802 L97.4618872,111.698802 C107.870793,111.698802 116.3432,103.230032 116.3432,92.8202172 C116.3432,82.5113188 107.952616,74.0452758 97.6409906,73.9489054 C96.8191153,73.9407231 96.0808822,73.4515981 95.7517684,72.6997277 C91.3160055,62.5262932 81.2853082,55.9531091 70.1963556,55.9531091 C55.3625972,55.9531091 43.1381111,67.5448239 42.3626026,82.3422162 C42.3307822,82.9695325 42.0162149,83.5468453 41.5079977,83.9168711 C41.0025081,84.2868968 40.3542812,84.4069051 39.7487845,84.2450757 C38.5286997,83.9186894 37.3104332,83.7541325 36.134897,83.7541325 C28.4289068,83.7541325 22.1621075,90.0218409 22.1621075,97.726922 Z" id="Combined-Shape" fill="#FFBD70"></path>
        <path d="M119.53924,52.0659298 C120.072004,52.0659298 120.604769,51.8622792 121.011161,51.4567965 L125.303277,47.1655891 C126.114243,46.3537145 126.114243,45.0363502 125.303277,44.2235664 C124.489584,43.4098735 123.170402,43.4098735 122.361254,44.2235664 L118.069138,48.5138647 C117.255445,49.3257393 117.255445,50.6449219 118.069138,51.4567965 C118.47553,51.8622792 119.006476,52.0659298 119.53924,52.0659298" id="Fill-7" fill="#FFBD70"></path>
        <path d="M123.046211,61.1965644 C123.296229,62.1257199 124.136287,62.739399 125.054533,62.739399 C125.233636,62.739399 125.414558,62.7166701 125.59457,62.6675758 L131.457705,61.0974667 C132.567782,60.7992641 133.224191,59.6591849 132.927807,58.5491077 C132.629605,57.4381214 131.487707,56.7780755 130.379448,57.0780963 L124.518132,58.6482055 C123.408054,58.9454989 122.749827,60.0864873 123.046211,61.1965644" id="Fill-9" fill="#FFBD70"></path>
        <path d="M125.036804,70.6494034 C123.926727,70.3475642 122.784829,71.0103375 122.488445,72.1204147 C122.188424,73.2304919 122.849379,74.3723894 123.958547,74.6687737 L129.818955,76.2388828 C129.999876,76.2879771 130.180798,76.3116151 130.359901,76.3116151 C131.278147,76.3116151 132.120024,75.6979361 132.367314,74.7678715 C132.667334,73.6587035 132.006379,72.517715 130.896302,72.2204217 L125.036804,70.6494034 Z" id="Fill-12" fill="#FFBD70"></path>
        <path d="M85.2808587,49.9288721 C85.6854323,50.3343548 86.2181966,50.5380054 86.7509609,50.5380054 C87.2837252,50.5380054 87.8164895,50.3343548 88.2228814,49.927963 C89.034756,49.1151792 89.034756,47.7978149 88.2228814,46.9859403 L83.931674,42.695642 C83.1179811,41.8837674 81.8006168,41.8837674 80.9887421,42.6965512 C80.1759584,43.5084258 80.1759584,44.8266993 80.9887421,45.639483 L85.2808587,49.9288721 Z" id="Fill-14" fill="#FFBD70"></path>
        <path d="M95.4164723,43.4796056 C95.6646714,44.4087611 96.5047298,45.021531 97.4229754,45.021531 C97.6020788,45.021531 97.7839096,44.9988021 97.9648313,44.9497078 C99.072181,44.6524144 99.7313177,43.511426 99.4349335,42.4013489 L97.8611877,36.5409415 C97.5648035,35.4308643 96.4210876,34.7753642 95.3137379,35.0708393 C94.2054791,35.3681327 93.5463423,36.5091211 93.8436357,37.6191983 L95.4164723,43.4796056 Z" id="Fill-16" fill="#FFBD70"></path>
        <path d="M108.888682,45.5092013 C109.067785,45.5573864 109.248707,45.5801153 109.428719,45.5801153 C110.346965,45.5801153 111.187932,44.9673454 111.437041,44.0372808 L113.00624,38.1768734 C113.302625,37.0667962 112.642579,35.9258078 111.532502,35.6285144 C110.424243,35.3294027 109.283254,35.9894486 108.984143,37.1013441 L107.416761,42.9608423 C107.120377,44.0709195 107.778604,45.2119079 108.888682,45.5092013" id="Fill-19" fill="#FFBD70"></path>
        <path d="M18,97.8861927 C18,87.8979424 26.1273734,79.7714772 36.1156237,79.7714772 C36.8694196,79.7714772 37.6322974,79.8214276 38.398808,79.9231446 C40.4068114,64.0843479 53.9161061,52 70.1408826,52 C82.4313892,52 93.5902937,59.033007 98.9295303,70.0266213 C110.881283,70.8321839 120.396367,80.8640272 120.396367,92.9847027 C120.396367,105.674812 110.071179,116 97.3774372,116 L36.1156237,116 C26.1273734,116 18,107.874443 18,97.8861927" id="Fill-1" fill="#FFFFFF"></path>
        <mask id="mask-2" fill="white">
            <use xlink:href="#path-1"></use>
        </mask>
        <use id="Mask" fill="#C1CDDA" xlink:href="#path-1"></use>
    </g>
</svg>