<?xml version="1.0" encoding="UTF-8"?>
<svg width="316px" height="73px" viewBox="0 0 316 73" version="1.1" xmlns="http://www.w3.org/2000/svg" xmlns:xlink="http://www.w3.org/1999/xlink">
    <!-- Generator: Sketch 50.2 (55047) - http://www.bohemiancoding.com/sketch -->
    <title>skyline/frankfurt</title>
    <desc>Created with Sketch.</desc>
    <defs></defs>
    <g id="skyline/frankfurt" stroke="none" stroke-width="1" fill="none" fill-rule="evenodd" fill-opacity="0.2">
        <path d="M28.0140113,92.8722631 C28.0982091,92.4502084 28.0982091,86.7077062 28.0982091,86.7077062 L31.1378558,86.5393106 L31.3073171,71.0447863 L32.9539701,70.9179567 L32.9955361,68.9334468 L39.8773729,68.9334468 L39.9200047,71.128984 L41.9034487,71.6991842 L42.0302783,86.5179947 L44.9025952,86.6448243 L45.028359,83.7735732 L46.1261276,83.6467436 L46.337155,76.0891929 L54.085483,75.8994814 L55.2887653,75.8994814 L55.1203697,53.5007385 L58.0331868,52.9518542 L58.2015824,48.8570707 L62.3816295,48.2868705 L65.8230808,48.8773208 L66.138556,50.9044625 L68.1028158,50.8405148 L68.4833045,50.3971442 L72.3244289,50.8405148 L72.3244289,53.0147361 L75.7658802,53.6478182 L75.8287621,54.5771913 L78.1095629,55.1473915 L78.2150766,55.8433555 L80.1153886,56.0330669 L80.1580204,34.7544743 L83.8520651,34.585013 L84.1472902,33.6556399 L85.1608611,33.592758 L91.0717589,34.5210653 L94.5334603,34.5210653 L101.289533,36.2529818 L101.373731,37.7728051 L105.258553,38.6595464 L105.04646,55.3776031 L106.229492,55.8422897 L106.31369,62.25944 L109.691193,62.8935879 L110.536369,87.2970907 L112.267219,87.4654863 L112.308785,88.5632549 L117.418206,88.4364253 L118.304947,86.578745 L120.499418,86.5361132 L120.605998,81.5332726 L121.492739,81.4277589 L121.618503,77.8818597 L127.530466,77.6068847 L127.78306,45.2024605 L132.427793,40.6856222 L132.681452,35.8724931 L143.532309,34.7320926 L144.924237,35.4078065 L151.426651,44.5693784 L151.68031,56.391174 L152.567051,56.3059104 L155.776159,57.0242561 L155.733528,58.7977386 L165.656077,60.8664462 L165.634761,62.5333492 L166.58545,62.7656925 L166.669648,-8.4805563 L167.324046,-8.98787461 L170.533154,-8.90367682 C170.533154,-8.90367682 171.673554,-11.9848895 171.69487,-12.0904032 C171.71512,-12.1969827 171.589356,-25.3691402 171.589356,-25.3691402 L172.180872,-27.0573591 L172.496348,-27.2268205 L172.476098,2.58026182 L172.898152,3.00231655 L172.877902,6.97133627 L176.359854,7.16211354 L176.614579,10.0738648 C176.614579,10.0738648 178.831432,9.7370737 180.077346,9.71575781 C181.322194,9.69444191 184.573934,10.7495787 184.573934,10.7495787 L184.6155,17.7582451 L187.676463,17.6953632 L192.489592,17.6740474 L193.862335,18.3284453 L194.052047,34.7523427 L194.98142,34.6670792 C194.98142,34.6670792 194.516733,33.400915 195.107184,33.1898876 C195.6987,32.9788603 197.303787,32.8520307 197.303787,32.8520307 C197.303787,32.8520307 197.135391,18.4126431 197.387985,18.2442476 C197.640578,18.0747862 197.788723,18.0332202 197.999751,18.0534703 C198.210778,18.0747862 198.338673,18.3913272 198.338673,18.3913272 L198.422871,32.746517 C198.422871,32.746517 200.323183,32.8733466 200.702606,33.2527695 C201.083095,33.6321924 201.040463,34.3079063 201.040463,34.3079063 C201.040463,34.3079063 202.751064,34.6255132 202.961025,35.0049361 C203.173119,35.3854248 203.21575,36.1453365 203.21575,36.1453365 C203.21575,36.1453365 205.093681,36.3979299 205.283392,36.8839323 C205.474169,37.3688689 205.516801,41.9922866 205.516801,41.9922866 L211.511897,44.0823102 L211.175106,67.6832696 L218.604761,67.218583 L224.431461,68.6968404 L224.684054,90.1864603 L225.654993,90.1864603 L225.52923,79.20984 L228.990931,78.238901 L228.906733,74.8187655 L234.690802,74.7761337 L234.859197,78.2378352 L240.178579,78.6598899 L240.178579,80.3918064 L241.952061,79.251406 L247.905591,82.5447118 L247.989789,88.5398074 L254.281175,88.370346 L254.323807,84.8660128 C254.323807,84.8660128 256.646174,84.2329307 257.574481,84.2329307 C258.503854,84.2329307 262.768099,84.3181943 262.768099,84.3181943 L262.683901,74.0162221 C262.683901,74.0162221 261.965555,73.0026512 262.049753,72.7489921 C262.133951,72.4953329 266.693421,69.836175 266.693421,69.836175 L266.777619,59.9562575 L271.084496,58.6890275 L284.341917,59.2805436 L284.510312,87.3141434 L285.566515,87.1883796 L288.395134,84.9917766 L291.223753,86.8078909 L299.371755,86.5542317 L299.287557,84.6123537 C299.287557,84.6123537 298.148222,84.6549855 298.21217,84.548406 C298.273986,84.4428923 299.542282,83.4517032 299.542282,83.4517032 L301.420212,74.5000929 L303.320524,81.9734458 L307.120082,66.5631192 L307.711599,66.4778557 L311.933212,81.6782207 L312.482096,81.5929571 L313.960353,74.9221476 L316.029061,83.23961 L317,84.2531808 L316.113259,85.4351472 L316.348799,109.711821 L0.0464907451,109.711821 C-0.281774044,105.159811 1.23591771,92.4864454 1.23591771,92.4864454 L28.0140113,92.8722631 Z" id="Fill-1" fill="#231F20"></path>
    </g>
</svg>